<?xml version="1.0" standalone="no"?>
<!DOCTYPE svg PUBLIC "-//W3C//DTD SVG 1.1//EN" "http://www.w3.org/Graphics/SVG/1.1/DTD/svg11.dtd" >
<svg xmlns="http://www.w3.org/2000/svg">
<metadata></metadata>
<defs>
<font id="pf_din_text_cond_proThIt" horiz-adv-x="839" >
<font-face units-per-em="2048" ascent="1536" descent="-512" />
<missing-glyph horiz-adv-x="387" />
<glyph unicode="&#xfb01;" horiz-adv-x="788" d="M12 -328l246 1264h-117l15 74h116l45 233q27 135 103 190.5t184 55.5q156 0 238 -94l-66 -62q-37 41 -85 56.5t-97 15.5q-78 0 -125 -43t-63 -123l-44 -229h406l-197 -1010h-88l183 936h-318l-246 -1264h-90z" />
<glyph unicode="&#xfb02;" horiz-adv-x="825" d="M14 -328l244 1264h-117l15 74h116l45 229q29 139 105 198.5t186 59.5q31 0 98.5 -11t145.5 -48l-236 -1202q-6 -35 -6 -64q0 -43 24.5 -69.5t90.5 -26.5h25q-2 -12 -8.5 -41t-10.5 -41h-20q-190 0 -191 156q0 33 6 69l224 1155q-35 18 -75 26.5t-75 8.5q-162 0 -194 -178 l-44 -221h211l-14 -74h-211l-244 -1264h-90z" />
<glyph horiz-adv-x="0" />
<glyph horiz-adv-x="682" />
<glyph unicode=" "  horiz-adv-x="387" />
<glyph unicode="&#x09;" horiz-adv-x="387" />
<glyph unicode="&#xa0;" horiz-adv-x="387" />
<glyph unicode="!" horiz-adv-x="419" d="M76 0l20 111h105q-4 -29 -10.5 -55.5t-12.5 -55.5h-102zM164 356q10 59 25.5 144.5t34 184.5t38 205.5t36.5 206t33.5 184.5t26.5 144h93l-222 -1069h-65z" />
<glyph unicode="&#x22;" horiz-adv-x="442" d="M225 1063l70 362h72l-70 -362h-72zM399 1063l72 362h70l-70 -362h-72z" />
<glyph unicode="#" horiz-adv-x="849" d="M18 0l164 459h-157l10 61h168l141 391h-156l13 64h166l163 455h66l-164 -455h268l164 455h64l-160 -455h162l-12 -64h-173l-141 -391h160l-14 -61h-168l-158 -459h-70l162 459h-268l-162 -459h-68zM270 520h269l139 391h-266z" />
<glyph unicode="$" d="M8 205q20 10 39 20.5t39 20.5q33 -72 89 -120t144 -54q29 156 60 311.5t61 312.5q-125 51 -196.5 117t-71.5 180q0 96 33 178t88 141.5t130 91.5t159 30q8 41 15 83t17 85h58l-33 -172q53 -4 97 -24t79 -47.5t58.5 -60t35.5 -65.5q-18 -12 -37.5 -22.5t-37.5 -22.5 q-25 55 -72 101t-137 57q-29 -145 -56.5 -289t-56.5 -291q63 -23 114.5 -50.5t87.5 -63.5t55 -82t19 -107q0 -106 -29.5 -193.5t-85 -149t-134 -96t-177.5 -36.5q-10 -53 -20 -107.5t-20 -109.5h-60l43 219q-113 8 -184.5 66.5t-112.5 148.5zM262 1001q0 -41 14.5 -72.5 t41 -56t62.5 -44t79 -37.5l104 555q-59 2 -114.5 -24t-96.5 -72t-65.5 -109.5t-24.5 -139.5zM379 70q76 2 136 33.5t101 83t63.5 117.5t22.5 142q0 47 -16 83t-44 61.5t-65.5 46t-80.5 37.5q-31 -152 -59.5 -301.5t-57.5 -302.5z" />
<glyph unicode="%" horiz-adv-x="1228" d="M92 -35l1049 1497h78l-1051 -1497h-76zM135 698q-6 39 2 80l90 455q18 92 70.5 143t157.5 51q47 0 87 -15t66.5 -42t38.5 -65.5t4 -83.5l-12 -66l-76 -395q-16 -84 -71.5 -140.5t-155.5 -56.5q-63 0 -105.5 18.5t-66 48t-29.5 68.5zM211 770q-10 -59 18.5 -99t104.5 -40 q78 0 111.5 40t43.5 95q2 12 9.5 48t16.5 82t19.5 99.5t19.5 99.5t15 81.5t9 48.5q10 55 -21.5 95t-101.5 40q-74 0 -108 -38t-46 -93zM670 129q-6 39 2 80l90 455q18 92 70.5 143t156.5 51q47 0 87 -15.5t66.5 -42t39 -65.5t4.5 -84l-12 -65l-76 -396q-16 -84 -72 -140 t-156 -56q-63 0 -105 18.5t-65.5 48t-29.5 68.5zM745 201q-10 -59 19 -99.5t104 -40.5q78 0 112 40t44 96q2 12 9 48t16.5 82t19.5 99t19.5 99t15.5 82l8 48q10 55 -21.5 95.5t-101.5 40.5q-74 0 -107.5 -38t-45.5 -94z" />
<glyph unicode="&#x26;" horiz-adv-x="1073" d="M90 272q0 291 356 516l-71 168q-33 78 -33 164q0 63 20.5 120.5t61.5 101.5t103.5 71t146.5 27t151.5 -28t108.5 -89l-68 -53q-29 47 -79 68.5t-111 21.5q-68 0 -115 -21.5t-76.5 -56.5t-43 -78t-13.5 -88q0 -57 18 -102q18 -49 47 -113.5t62 -136.5t67.5 -144.5 t63.5 -134t51.5 -108.5t30.5 -66q47 63 75.5 136t47.5 137l82 -2q-23 -86 -65 -179.5t-99 -173.5q29 -57 57.5 -115.5t57.5 -113.5h-101l-82 160q-100 -100 -186 -136t-180 -36q-127 0 -206 72.5t-79 211.5zM176 279q0 -98 55.5 -157t153.5 -59q72 0 161 43.5t163 124.5 q-59 123 -115 242t-113 242q-164 -104 -234.5 -214t-70.5 -222z" />
<glyph unicode="'" horiz-adv-x="333" d="M256 1063l72 362h71l-69 -362h-74z" />
<glyph unicode="(" horiz-adv-x="483" d="M133 352q0 154 37 307.5t100.5 298t150.5 274.5t187 236l37 -22q-94 -121 -172 -254t-134 -276.5t-87 -293t-31 -300.5q0 -143 26.5 -278.5t78.5 -256.5l-45 -27q-72 123 -110 276.5t-38 315.5z" />
<glyph unicode=")" horiz-adv-x="483" d="M-49 -215q92 113 170 247t135 278.5t89 296t32 302.5q0 141 -26.5 276.5t-76.5 258.5l45 22q72 -125 108 -274.5t36 -306.5q0 -156 -37 -311.5t-100.5 -302t-151.5 -277.5t-188 -236z" />
<glyph unicode="*" horiz-adv-x="688" d="M207 1186l41 82l215 -99l35 254h82l-64 -254l254 99q0 -4 2 -16.5t4 -26t4 -25.5t2 -14l-258 -72l125 -199l-82 -53l-94 221l-178 -221l-62 51l199 201q-4 0 -39 11.5t-74.5 23.5t-73.5 23.5t-38 13.5z" />
<glyph unicode="+" d="M68 549l14 76h338l69 356h74l-69 -356h337l-14 -76h-338l-69 -361h-74l70 361h-338z" />
<glyph unicode="," horiz-adv-x="317" d="M-35 -199l84 197h-31l23 123h117l-21 -117l-117 -203h-55z" />
<glyph unicode="-" horiz-adv-x="708" d="M123 522l18 86h510l-16 -86h-512z" />
<glyph unicode="." horiz-adv-x="309" d="M18 0l23 125h115l-23 -125h-115z" />
<glyph unicode="/" horiz-adv-x="536" d="M-104 -86l751 1571h72l-754 -1571h-69z" />
<glyph unicode="0" d="M53.5 193.5q-14.5 64.5 1.5 144.5l154 784q31 154 123 234t233 80q63 0 120.5 -21.5t97.5 -63.5t56.5 -102.5t2.5 -138.5l-156 -805q-29 -162 -124 -239.5t-234 -77.5q-72 0 -128.5 24.5t-94 70.5t-52 110.5zM139 328q-20 -117 34 -187.5t163 -70.5q113 0 178.5 69.5 t85.5 169.5l156 799q20 106 -35 176t-164 70q-111 0 -176.5 -63.5t-85.5 -172.5z" />
<glyph unicode="1" d="M305 0l258 1327l-239 -147l18 100l238 145h90l-277 -1425h-88z" />
<glyph unicode="2" d="M-43 0l16 86l639 778q59 74 91 145.5t32 145.5q0 86 -50 141.5t-148 55.5q-90 0 -164 -58.5t-103 -165.5l-88 19q35 135 133.5 211t227.5 76q133 0 207.5 -71t74.5 -198q2 -104 -43 -188t-104 -160l-602 -733h532l-14 -84h-637z" />
<glyph unicode="3" d="M-37 242l76 18q8 -82 50 -136t151 -54q82 0 141 36.5t99 98t59.5 139.5t19.5 160q0 96 -45 146t-139 50h-68l17 82h65q61 0 114.5 28t91.5 79t59.5 121.5t21.5 154.5q0 82 -50.5 135.5t-144.5 53.5q-92 0 -158.5 -54.5t-97.5 -144.5l-88 19q39 129 132.5 195.5 t222.5 66.5q137 0 204.5 -74t67.5 -191q0 -55 -12.5 -119.5t-41 -125t-75.5 -110.5t-117 -77q78 -27 103.5 -89t25.5 -130q0 -90 -21.5 -184t-70.5 -171t-130 -127t-198 -50t-188.5 65.5t-75.5 188.5z" />
<glyph unicode="4" d="M-6 240l16 82l613 1103h90l-613 -1103h441l82 419h86l-82 -419h118l-16 -82h-117l-47 -240h-88l47 240h-530z" />
<glyph unicode="5" d="M37 242q23 4 44 9t44 11q2 -84 43 -139t149 -55q98 0 163 59t101.5 147t51 188.5t14.5 182.5q0 86 -39 143.5t-143 57.5q-31 0 -63.5 -8.5t-64.5 -23.5t-59.5 -36.5t-48.5 -46.5h-82l136 694h602l-19 -84h-518l-98 -510h2q57 49 121.5 71t124.5 22q129 0 183 -66.5 t54 -185.5q0 -70 -7 -146.5t-25.5 -153.5t-49 -146.5t-79 -122t-114 -84t-153.5 -31.5q-115 0 -191.5 60.5t-78.5 193.5z" />
<glyph unicode="6" d="M53 260q0 123 38 234.5t83 183.5q121 186 238.5 372.5t238.5 374.5h92l-428 -680q39 25 85.5 38.5t91.5 13.5q238 0 237 -267q0 -94 -22.5 -190t-70.5 -175t-126 -128t-188 -49q-129 0 -199 68.5t-70 203.5zM141 276q0 -104 46.5 -156t144.5 -52q86 0 144.5 44t94 110.5 t52 146.5t16.5 151q0 100 -44 149.5t-140 49.5q-88 0 -151.5 -51.5t-100.5 -128.5q-27 -57 -44.5 -125t-17.5 -138z" />
<glyph unicode="7" d="M80 0l708 1343h-473l-39 -202h-83l55 284h647l-14 -82l-709 -1343h-92z" />
<glyph unicode="8" d="M31 268q0 57 12 130t43 140.5t81 122t128 76.5q-53 29 -86 82t-33 125q0 92 21.5 180t67.5 158t121 112t179 42q133 0 206 -74t73 -191q0 -66 -12.5 -135t-41 -129.5t-74.5 -106.5t-116 -65q59 -29 92 -87t35 -150q0 -94 -22.5 -185.5t-71.5 -164t-126 -116.5t-185 -44 q-141 0 -216 77.5t-75 202.5zM117 285q0 -41 10 -80t33.5 -70t63.5 -50t102 -19q86 0 145 38.5t96 99t54.5 134.5t19.5 143q0 90 -47.5 154.5t-153.5 64.5q-90 0 -152.5 -39.5t-100 -101t-54 -134.5t-16.5 -140zM264 944q0 -74 51.5 -121t141.5 -47q86 0 143 34t92 88 t50.5 121.5t15.5 137.5q0 86 -53.5 142.5t-151.5 56.5q-86 0 -141.5 -39t-88 -98.5t-46 -133t-13.5 -141.5z" />
<glyph unicode="9" d="M133 0l434 682h-2q-37 -29 -85 -42t-93 -13q-127 0 -182 79.5t-55 211.5q0 88 22.5 180t70.5 167.5t123.5 124t184.5 48.5q133 0 201.5 -73t68.5 -208q-2 -123 -36.5 -231.5t-79.5 -180.5l-478 -745h-94zM240 903q0 -100 43 -149t139 -49q86 0 145.5 40.5t95 105 t52 141.5t16.5 151q0 104 -47 158.5t-145 54.5q-86 0 -143.5 -44t-92.5 -111.5t-49 -147.5t-14 -150z" />
<glyph unicode=":" horiz-adv-x="317" d="M18 0l25 125h115l-25 -125h-115zM143 635l23 125h115l-23 -125h-115z" />
<glyph unicode=";" horiz-adv-x="317" d="M-35 -199l84 197h-31l23 123h117l-21 -117l-117 -203h-55zM141 635q8 31 13.5 61.5t11.5 61.5h117q-8 -31 -13.5 -61.5t-11.5 -61.5h-117z" />
<glyph unicode="&#x3c;" d="M74 551l14 72l805 366l-14 -84l-717 -323q18 -8 64 -33t105.5 -56.5t126 -68.5t126 -69.5t105.5 -58.5t67 -34l-19 -78z" />
<glyph unicode="=" d="M31 371l16 75h752l-17 -75h-751zM96 700l15 74h749l-14 -74h-750z" />
<glyph unicode="&#x3e;" d="M2 184l16 86q23 8 79.5 34t128 58.5t151.5 68.5t151.5 68.5t128 57.5t78.5 33l-590 323l17 76l665 -366l-14 -72z" />
<glyph unicode="?" horiz-adv-x="806" d="M190 1133q51 150 156 226.5t240 76.5q145 0 220 -77t75 -196q0 -92 -33 -172t-76 -129l-74 -76q-70 -72 -133 -144.5t-90 -172.5q-8 -35 -14 -71t-12 -70h-91l27 135q27 123 119 229q49 61 102 113.5t103 107.5q39 43 61.5 104.5t22.5 137.5q0 86 -51.5 141.5 t-159.5 55.5q-115 0 -192 -70t-111 -170zM287 0l24 113h107l-25 -113h-106z" />
<glyph unicode="@" horiz-adv-x="1540" d="M129 526q0 193 60.5 360t169 290.5t260 194.5t333.5 71q129 0 234.5 -38t180.5 -107.5t116 -169t41 -222.5q0 -135 -32 -247.5t-86 -194.5t-126 -128t-154 -46q-25 0 -53.5 7t-55 22.5t-46 42t-21.5 65.5q-53 -72 -118.5 -100.5t-122.5 -28.5t-97.5 18.5t-65 49 t-34.5 68.5t-10 75q0 86 16.5 185.5t57 184.5t109.5 141t171 56q59 0 110.5 -29.5t73.5 -82.5h2l23 102h74l-115 -555q-12 -59 17.5 -105.5t91.5 -46.5q66 0 124 42t101 115t68.5 171t25.5 213q0 113 -38 201t-104.5 149.5t-157.5 93t-198 31.5q-174 0 -312 -67.5 t-235.5 -183t-149.5 -267t-52 -319.5q0 -252 139 -398.5t406 -146.5q205 0 385 78l22 -68q-98 -35 -199.5 -57.5t-207.5 -22.5q-291 0 -456 157t-165 447zM573 526q0 -70 33 -118t117 -48q88 0 149.5 62.5t90.5 150.5q20 70 32.5 142.5t12.5 138.5q0 70 -41 111t-113 41 q-80 0 -133 -48.5t-86 -120t-47.5 -155.5t-14.5 -156z" />
<glyph unicode="A" horiz-adv-x="972" d="M-57 0q172 358 342 712.5t344 712.5h98q35 -358 68.5 -712.5t68.5 -712.5h-92l-29 360h-536q-41 -92 -84 -180t-86 -180h-94zM246 442h491q-12 125 -22 249t-23 249q-8 92 -14 186.5t-16 186.5h-5l-165 -357q-8 -16 -27 -55t-44.5 -91t-52 -109.5t-52 -109.5t-44 -92 t-26.5 -57z" />
<glyph unicode="B" horiz-adv-x="1005" d="M49 0l277 1425h381q158 0 242.5 -76.5t84.5 -215.5q0 -133 -63.5 -240t-202.5 -150l-2 -4q86 -18 129 -94t43 -168q-2 -127 -42 -218t-105.5 -148.5t-149.5 -84t-176 -26.5h-416zM154 84h327q90 0 159 31.5t115 86t68.5 123t22.5 142.5q0 109 -57.5 171t-178.5 62h-336z M291 780h217q29 0 58.5 1t58.5 3q70 2 129 28t101 69t65.5 100t23.5 127q0 113 -67.5 173t-196.5 60h-281q-29 -141 -55.5 -280t-52.5 -281z" />
<glyph unicode="C" horiz-adv-x="935" d="M88 301q0 39 7 87t14 85l88 449q18 94 46.5 187t79 165t130 117t202.5 45q166 0 256 -80t105 -207q-23 -8 -45.5 -15.5t-46.5 -13.5q-4 98 -75 163t-194 65q-104 0 -169.5 -41t-106.5 -106.5t-62.5 -145.5t-35.5 -160l-78 -406q-10 -47 -15.5 -97t-5.5 -85 q0 -47 13.5 -90t43 -75.5t77.5 -53t118 -20.5q123 0 208 62.5t132 180.5q23 -8 43.5 -15t42.5 -13q-53 -150 -163.5 -222.5t-264.5 -72.5q-172 0 -258 88t-86 225z" />
<glyph unicode="D" horiz-adv-x="1032" d="M51 0l275 1425h389q176 0 252.5 -77.5t76.5 -217.5q0 -27 -4 -70.5t-12 -99t-17.5 -117t-21.5 -124.5q-31 -160 -60.5 -292t-64.5 -202q-35 -66 -79 -109.5t-97 -69.5t-114.5 -36t-129.5 -10h-393zM158 84h299q115 0 196.5 44t122.5 124q23 39 39.5 93t26.5 101 q23 109 45 216.5t39 214.5q12 77 24 159q6 37 6 70q0 42 -8 80q-16 68 -72.5 111.5t-179.5 43.5h-295z" />
<glyph unicode="E" horiz-adv-x="892" d="M51 0l277 1425h714l-18 -84h-623l-110 -573h538l-16 -82h-537l-118 -602h622l-14 -84h-715z" />
<glyph unicode="F" horiz-adv-x="870" d="M51 0l277 1425h714l-16 -84h-623l-110 -575h536l-16 -82h-537l-131 -684h-94z" />
<glyph unicode="G" horiz-adv-x="991" d="M84 303q0 39 6 87t12 85l88 449q18 94 47 187t79.5 165t130 117t202.5 45q166 0 256 -80t105 -207l-92 -29q-4 98 -75 163t-194 65q-104 0 -169.5 -41t-106.5 -106.5t-62.5 -145.5t-36.5 -160l-77 -405q-10 -47 -17.5 -102.5t-7.5 -90.5q0 -47 14.5 -88t45 -71.5 t78.5 -49t118 -18.5q125 0 211 62.5t127 166.5q18 43 30.5 90t22.5 94l33 160h-248l17 82h337q-10 -63 -23 -125.5t-28 -128.5q-18 -104 -57 -201q-53 -135 -159.5 -208.5t-264.5 -73.5q-172 0 -257 88t-85 225z" />
<glyph unicode="H" horiz-adv-x="1048" d="M51 0l279 1425h90l-129 -657h604l127 657h92l-278 -1425h-91l134 684h-603l-133 -684h-92z" />
<glyph unicode="I" horiz-adv-x="391" d="M68 0l278 1425h90l-276 -1425h-92z" />
<glyph unicode="J" horiz-adv-x="778" d="M-37 86l64 61q16 -18 40.5 -31.5t52 -23.5t55.5 -15t52 -5q53 0 101.5 13t88.5 47t70.5 90.5t47.5 144.5l206 1058h93l-209 -1079q-37 -190 -136.5 -274t-267.5 -84q-72 0 -145.5 25.5t-112.5 72.5z" />
<glyph unicode="K" horiz-adv-x="1013" d="M47 0l279 1425h90q-41 -219 -90.5 -443t-89.5 -443h2l766 886h104l-471 -555l262 -870h-96q-59 199 -118.5 394.5t-119.5 393.5l-350 -401l-78 -387h-90z" />
<glyph unicode="L" horiz-adv-x="806" d="M66 0l276 1425h90l-262 -1341h612l-16 -84h-700z" />
<glyph unicode="M" horiz-adv-x="1290" d="M47 0l279 1425h88q55 -256 112.5 -505.5t114.5 -503.5h2q14 25 61.5 99.5t110 175t133 215t134 219t113.5 185.5t71 115h96l-279 -1425h-88q57 299 116.5 602t117.5 602h-2q-141 -236 -283.5 -465t-290.5 -460h-69q-53 227 -106.5 453t-106.5 456h-2l-232 -1188h-90z" />
<glyph unicode="N" horiz-adv-x="1107" d="M49 0l279 1425h88l424 -1232h4l239 1232h86l-274 -1425h-88q-53 160 -106.5 312.5t-105.5 305t-106.5 308t-109.5 319.5h-2q-10 -61 -28.5 -159.5t-41 -214t-46 -240.5t-47.5 -243t-43 -219t-32 -169h-90z" />
<glyph unicode="O" horiz-adv-x="993" d="M90 264q-5 35 -5 72q0 49 9 100l115 574q16 82 47 159.5t84 136t131 94.5t188 36q100 0 173 -34t118 -92q46 -58 60 -134q7 -36 6 -74q0 -43 -8 -88l-109 -596q-16 -88 -49 -167t-87 -137.5t-131 -93t-183 -34.5q-109 0 -185 36.5t-119 98t-55 143.5zM179 294 q7 -64 38 -113.5t88 -79t146 -29.5q86 0 147 28.5t102 76.5t67 109.5t38 127.5l113 596q7 37 7 73q1 25 -3 51q-8 62 -41 109t-91.5 77t-144.5 30q-84 0 -143.5 -30t-100.5 -78t-65.5 -110.5t-36.5 -125.5l-113 -576q-9 -48 -9 -93q0 -21 2 -43z" />
<glyph unicode="P" horiz-adv-x="952" d="M51 0l279 1425h366q168 0 259.5 -76.5t91.5 -230.5q0 -115 -32 -208t-93.5 -160.5t-150.5 -104.5t-202 -37h-307l-119 -608h-92zM279 694h294q174 0 276.5 109t102.5 297q0 117 -65.5 179t-200.5 62h-283z" />
<glyph unicode="Q" horiz-adv-x="997" d="M90 264q-5 35 -5 72q0 49 9 100l115 574q16 82 47 159.5t84 136t131 94.5t188 36q100 0 173 -34t118 -91.5t60 -134.5q6 -36 6 -74q0 -43 -8 -88l-109 -596q-16 -76 -39.5 -143.5t-64.5 -122.5l123 -115l-60 -60l-121 111q-53 -47 -123.5 -74.5t-164.5 -27.5 q-109 0 -185 36.5t-119 98t-55 143.5zM179 294q7 -65 38 -114t88 -78.5t146 -29.5q72 0 126 21.5t95 56.5l-158 145l64 63l151 -143q29 43 47.5 94t28.5 105l113 596q7 37 7 73q0 26 -3 51q-9 62 -41.5 109t-91 77t-144.5 30q-84 0 -143.5 -30t-100.5 -78t-65.5 -110.5 t-36.5 -125.5l-113 -576q-9 -48 -9 -93q0 -22 2 -43z" />
<glyph unicode="R" horiz-adv-x="993" d="M51 0l277 1425h393q162 0 246 -74.5t84 -220.5q0 -195 -97.5 -313.5t-265.5 -146.5l154 -670h-101l-147 659l-326 -2q-31 -166 -62.5 -328.5t-64.5 -328.5h-90zM285 737h260q78 0 152.5 17.5t133 62.5t94.5 119t36 188q0 111 -70 164t-195 53h-295q-29 -152 -58.5 -301 t-57.5 -303z" />
<glyph unicode="S" horiz-adv-x="935" d="M47 215l84 45q25 -86 98.5 -136t198.5 -50q90 0 156.5 28.5t109.5 75.5t64.5 109.5t21.5 130.5q0 63 -17.5 106t-50 72t-78.5 49.5t-104 38.5q-84 29 -143 59.5t-97 68.5t-55.5 86t-17.5 112q0 92 28.5 171t84 135t134.5 89t181 33q137 0 219 -50.5t121 -132.5l-84 -51 q-29 70 -95.5 108t-164.5 38q-80 0 -141.5 -28t-101.5 -74t-60.5 -104.5t-20.5 -121.5q0 -55 17.5 -93t50.5 -66.5t82 -50t113 -44.5q72 -25 127 -53.5t94 -66.5t58.5 -89t19.5 -123q0 -205 -120 -326.5t-343 -121.5q-150 0 -243 61.5t-126 165.5z" />
<glyph unicode="T" horiz-adv-x="806" d="M190 1341l17 84h782l-18 -84h-342l-262 -1341h-91l263 1341h-349z" />
<glyph unicode="U" horiz-adv-x="1011" d="M100 242q-6 35 -7 74q0 46 9 96l199 1013h90q-4 -20 -18.5 -96t-35 -180.5t-44 -224t-44 -224t-35.5 -182.5t-19 -100q-10 -49 -10 -94q0 -18 2 -38q6 -62 35.5 -108.5t86 -74t142.5 -27.5t149.5 28.5t106.5 76.5t68.5 111.5t39.5 133.5l193 999h92q-6 -27 -20.5 -104.5 t-35 -182t-43 -221t-42 -221t-35 -182.5t-19.5 -102q-18 -90 -53 -168t-91 -135.5t-134 -89t-183 -31.5q-102 0 -174.5 31.5t-114 89t-55.5 133.5z" />
<glyph unicode="V" horiz-adv-x="917" d="M219 1425h88q12 -174 23.5 -347t21.5 -347q10 -147 19.5 -294.5t19.5 -297.5h6q31 66 66 143.5t70.5 156.5t70.5 156t66 142l313 688h98l-661 -1425h-96z" />
<glyph unicode="W" horiz-adv-x="1406" d="M227 1425h88q0 -160 1 -318.5t1 -318.5v-313.5t-2 -312.5h4l281 665q63 150 127 298.5t125 299.5h86q2 -29 4 -92t4 -149t5.5 -187.5t7.5 -207t7 -207t5 -186.5t4 -147.5t4 -88.5h4q49 131 100.5 262t102.5 262l289 741h94l-568 -1425h-96q-4 164 -9 326.5t-11 326.5 q-4 147 -9.5 294t-11.5 294h-4l-219 -524l-303 -717h-98z" />
<glyph unicode="X" horiz-adv-x="858" d="M-61 0l501 731l-204 692h92l174 -606l409 606h105l-481 -694l223 -729h-94l-189 641l-434 -641h-102z" />
<glyph unicode="Y" horiz-adv-x="835" d="M209 1425h88q29 -117 52.5 -234.5t51.5 -234.5q14 -61 29.5 -127.5t32.5 -130.5h4q43 72 87 144.5t89 144.5l266 438h99l-516 -829l-115 -596h-88l114 596q-47 209 -96 415t-98 414z" />
<glyph unicode="Z" horiz-adv-x="800" d="M-37 0l17 84l851 1257h-571l16 84h672l-16 -82l-854 -1259h598l-17 -84h-696z" />
<glyph unicode="[" horiz-adv-x="438" d="M16 -221l320 1648h262l-14 -69h-176l-295 -1512h178l-15 -67h-260z" />
<glyph unicode="\" horiz-adv-x="520" d="M197 1477h71l107 -1551h-72z" />
<glyph unicode="]" horiz-adv-x="438" d="M-43 -223l12 69h176l295 1512h-178l14 69h261l-320 -1650h-260z" />
<glyph unicode="^" d="M113 725l467 694h69l197 -692h-78l-168 608q-12 -18 -43 -65t-72 -108.5t-87 -130t-87 -130t-71.5 -110t-42.5 -66.5h-84z" />
<glyph unicode="_" horiz-adv-x="1007" d="M-127 -231l16 75h1004l-14 -75h-1006z" />
<glyph unicode="`" horiz-adv-x="837" d="M436 1442l84 45l172 -320l-47 -24z" />
<glyph unicode="a" horiz-adv-x="876" d="M82 268q0 59 8 128t23 141q20 109 53 197.5t82 153t116.5 99.5t157.5 35q86 0 150.5 -40t89.5 -110l2 2l24 134h86l-196 -1008h-86l31 143h-5q-53 -72 -122.5 -113.5t-171.5 -41.5q-66 0 -112 21.5t-74.5 60.5t-42 89t-13.5 109zM172 279q0 -43 9 -82t30.5 -67t56.5 -44 t86 -16q57 0 104.5 22.5t83.5 59t61.5 83t41.5 93.5q29 90 46.5 181t27.5 175q4 23 4 44q0 27 -6 53q-10 46 -35 80t-64 54.5t-88 20.5q-80 0 -135 -34t-91 -89t-58.5 -125t-36.5 -141q-16 -72 -26.5 -141.5t-10.5 -126.5z" />
<glyph unicode="b" horiz-adv-x="823" d="M4 0l289 1481h88q-31 -154 -61.5 -309.5t-59.5 -311.5h2q39 59 115 108.5t174 49.5q68 0 116 -20.5t76.5 -56.5t42 -84t13.5 -105q0 -66 -7.5 -149t-25.5 -168t-50 -166t-81 -143.5t-116 -100t-157 -37.5q-92 0 -151 33.5t-88 109.5h-4l-29 -131h-86zM163 262 q1 -54 19.5 -97.5t58 -70t111.5 -26.5q70 0 124 31.5t94 85t67 123t42 142t22.5 144.5t7.5 131q0 104 -45.5 157.5t-149.5 53.5q-51 0 -94 -19.5t-77 -51t-58.5 -71.5t-38.5 -81q-29 -82 -47.5 -171t-28.5 -173q-7 -47 -7 -95v-12z" />
<glyph unicode="c" horiz-adv-x="753" d="M57 289q0 76 9.5 159.5t31 164.5t56 155t87 130t124 89t163.5 33q104 0 176 -47t89 -139l-82 -39q-10 66 -60.5 104.5t-126.5 38.5q-113 0 -185.5 -67.5t-114.5 -166t-58 -210t-16 -197.5q0 -45 9 -86t33.5 -73t65.5 -50t102 -18q76 0 140.5 36.5t95.5 102.5l78 -41 q-47 -86 -129 -133t-193 -47q-86 0 -143 24.5t-91 66.5t-47.5 96t-13.5 114z" />
<glyph unicode="d" horiz-adv-x="823" d="M53 260q4 76 14.5 161t32 170t54 162.5t81 136t114 94.5t149.5 36q98 0 152.5 -44t80.5 -108h2q31 156 61.5 309.5t59.5 307.5h88q-72 -375 -144.5 -742.5t-146.5 -742.5h-86q4 35 11.5 66.5t13.5 66.5h-4q-53 -68 -121 -107.5t-164 -39.5q-70 0 -117 19.5t-76.5 55 t-42 86t-12.5 113.5zM145 281q0 -45 7.5 -83t29 -67t58.5 -45t96 -16q98 0 167.5 61.5t100.5 149.5q29 84 46.5 173t31.5 175q7 45 7 93v12q-1 54 -20.5 99.5t-59.5 74t-107 28.5q-102 0 -170 -67.5t-108 -168t-58.5 -215t-20.5 -204.5z" />
<glyph unicode="e" horiz-adv-x="831" d="M70 279q0 72 9 154.5t29.5 165.5t55.5 159t85 135t118.5 94t156.5 35q147 0 219 -67.5t72 -166.5q0 -164 -118.5 -257t-374.5 -93q-25 0 -69 2t-85 6q-6 -37 -10 -74.5t-4 -68.5q0 -106 46 -170.5t158 -64.5q72 0 143.5 34.5t112.5 94.5l66 -39q-53 -78 -136 -124 t-194 -46q-84 0 -138 26.5t-86 68.5t-44 94t-12 102zM182 526q37 -4 84 -7t76 -3q104 0 178 19.5t120 54.5t67.5 82t21.5 102q0 76 -55.5 122t-155.5 46q-70 0 -125 -30.5t-96 -86t-69.5 -131.5t-45.5 -168z" />
<glyph unicode="f" horiz-adv-x="460" d="M-172 -272l14 84q12 -2 19.5 -2h17.5q94 0 136 49t55 116l186 957h-131q4 18 7 37.5t7 36.5h133q10 59 22.5 116.5t22.5 116.5q23 109 85.5 180.5t185.5 71.5q14 0 29.5 -1t31.5 -3l-14 -82q-29 6 -53 6q-49 0 -81 -17.5t-51.5 -43t-29.5 -58t-17 -63.5l-43 -223h189 l-14 -74h-189q-45 -225 -89 -449.5t-87 -451.5q-12 -63 -30.5 -118.5t-51.5 -97.5t-83 -66.5t-124 -24.5q-14 0 -25.5 1t-27.5 3z" />
<glyph unicode="g" horiz-adv-x="864" d="M4 -248l74 45q14 -53 61 -93t125 -40q131 0 205 71.5t96 186.5l47 225h-4q-55 -74 -127.5 -115.5t-169.5 -41.5q-70 0 -115.5 21.5t-73.5 58t-39 86t-11 104.5q0 63 9 139t25 156q18 90 48 174t78.5 149.5t117 104.5t164.5 39q82 0 146.5 -39t87.5 -109h2q8 35 15 67 t13 67h86q-23 -119 -46 -239t-48 -247t-51.5 -265t-54.5 -294q-29 -174 -125.5 -276.5t-270.5 -102.5q-90 0 -165.5 39t-98.5 129zM164 274q0 -43 7 -80.5t27.5 -64.5t56.5 -42t91 -15t104.5 22.5t88.5 59t66.5 84t39.5 96.5q8 31 18.5 74t18.5 90t15.5 96t11.5 90 q2 19 2 37q0 30 -5 58q-6 46 -27.5 81t-59.5 56.5t-95 21.5q-84 0 -139 -34t-92 -89t-58.5 -124.5t-37.5 -143.5q-14 -74 -23.5 -143.5t-9.5 -129.5z" />
<glyph unicode="h" horiz-adv-x="884" d="M31 0q72 375 143.5 744.5t144.5 744.5h87l-123 -629h4q59 82 141 120t160 38q74 0 126 -25.5t82 -69.5q28 -45 36 -103q2 -20 3 -39q0 -40 -10 -83l-135 -698h-90q18 94 37.5 189.5t37 184.5t32 168t26.5 138q6 36 6 72v18q-2 45 -20.5 80t-57 57.5t-100.5 22.5 q-78 0 -135 -31t-97 -82t-64.5 -117.5t-39.5 -136.5l-108 -563h-86z" />
<glyph unicode="i" horiz-adv-x="358" d="M53 0l195 1010h88l-195 -1010h-88zM299 1286l18 98h95l-19 -98h-94z" />
<glyph unicode="j" horiz-adv-x="372" d="M-180 -412l14 82h37q78 0 112 47t50 133q55 289 112.5 577t112.5 581h90q-57 -299 -114.5 -592t-114.5 -588q-23 -109 -81 -175.5t-171 -66.5h-23.5t-23.5 2zM311 1286l19 96h96l-18 -96h-97z" />
<glyph unicode="k" horiz-adv-x="835" d="M33 0l286 1489h87l-211 -1079h2l563 598h106l-350 -375q57 -160 112.5 -317.5t112.5 -315.5h-94q-49 141 -98 283.5t-100 283.5q-72 -74 -139.5 -147.5t-137.5 -147.5l-53 -272h-86z" />
<glyph unicode="l" horiz-adv-x="391" d="M80 219l248 1268h88q-6 -33 -24.5 -129t-44 -224t-53.5 -272.5t-53.5 -272.5t-45 -224.5t-25.5 -128.5q-6 -35 -6 -64q0 -43 24.5 -69.5t92.5 -26.5h24l-18 -82h-21q-192 0 -192 154q0 35 6 71z" />
<glyph unicode="m" horiz-adv-x="1456" d="M41 0q47 252 97 503t98 503h86l-27 -144h4q59 80 135 118t154 38q98 0 161.5 -47t73.5 -127q68 90 149 132t171 42q84 0 137 -28.5t79.5 -76t30.5 -105.5l2 -30q0 -44 -10 -90l-135 -688h-88l133 686q6 33 6 64q0 12 -1 24q-3 43 -22.5 78t-56 56.5t-98.5 21.5 q-68 0 -121 -28t-93 -73t-64.5 -102t-36.5 -117l-119 -610h-88l135 686q6 33 6 65q0 12 -1 24q-3 44 -23.5 80t-58.5 57.5t-99 21.5q-74 0 -128 -30t-92 -79t-61.5 -112.5t-35.5 -130.5l-113 -582h-86z" />
<glyph unicode="n" horiz-adv-x="884" d="M33 0l196 1008h86q-8 -37 -15 -74t-13 -74h4q59 84 141 121t160 37q76 0 127 -25.5t79 -68.5q28 -42 36 -100q3 -21 3 -43q0 -37 -8 -76l-137 -705h-88l133 680q8 47 8 92t-18 80t-57 56.5t-109 21.5q-78 0 -134 -31t-96 -81t-64.5 -115.5t-37.5 -133.5l-110 -569h-86z " />
<glyph unicode="o" horiz-adv-x="851" d="M66 276q0 59 5 121t15 117q20 117 56 211t85 158q53 68 123 103.5t168 35.5q80 0 136.5 -26.5t91 -71.5t50 -101.5t15.5 -117.5q-2 -63 -12.5 -134t-24.5 -137q-23 -109 -55.5 -192.5t-80.5 -140t-116.5 -85t-163.5 -28.5q-88 0 -145 25.5t-90 66.5t-45 92t-12 104z M154 307q0 -47 7 -90t29.5 -77t64.5 -54t110 -20q94 0 160.5 47t101.5 133q20 45 37.5 103.5t31 120.5t20.5 124.5t7 118.5q0 111 -57.5 170t-157.5 59q-70 0 -127 -30.5t-96 -88.5q-25 -37 -48.5 -98t-42 -133t-29.5 -146.5t-11 -138.5z" />
<glyph unicode="p" horiz-adv-x="856" d="M-66 -408q68 356 137.5 708.5t139.5 709.5h86l-25 -133h4q53 68 121 107.5t164 39.5q129 0 188.5 -69.5t59.5 -198.5q-2 -63 -10 -139t-23 -138q-23 -104 -53.5 -194t-78.5 -154.5t-115.5 -101.5t-166.5 -37q-96 0 -150 43t-81 106h-4l-107 -549h-86zM172 291 q0 -45 9 -84t32 -68.5t57.5 -47t87.5 -17.5q84 0 140.5 36.5t93.5 96t60.5 137.5t39.5 158q12 57 18.5 113.5t6.5 109.5q0 45 -8.5 84t-30 67.5t-58.5 46t-94 17.5q-98 0 -167.5 -61.5t-100.5 -151.5q-33 -92 -53.5 -191.5t-30.5 -191.5q-2 -12 -2 -25.5v-27.5z" />
<glyph unicode="q" horiz-adv-x="864" d="M72 264q0 72 9 146.5t25 156.5q14 82 44 163t78 145.5t118 104.5t164 40q84 0 150.5 -38t89.5 -110h4q6 35 12 68t14 66h86q-70 -356 -136 -707.5t-136 -704.5h-90q29 139 54.5 276.5t53.5 272.5h-2q-41 -59 -114.5 -107t-169.5 -48q-72 0 -120 23.5t-78 61.5t-43 88 t-13 103zM166 283q0 -102 43 -158.5t147 -56.5q51 0 93.5 19t76 52t58 73t41.5 83q35 88 54 183t26 179q2 27 2 54q0 24 -1 47q-4 51 -22 90t-57 63.5t-107 24.5q-78 0 -132 -33t-93 -89t-63.5 -130t-38.5 -154q-12 -66 -19.5 -130t-7.5 -117z" />
<glyph unicode="r" horiz-adv-x="583" d="M47 0l195 1010h88l-33 -162h6q59 98 138 136t163 38q49 0 80 -12l-31 -95q-23 10 -46 12.5t-40 2.5q-119 0 -202.5 -87t-110.5 -225l-121 -618h-86z" />
<glyph unicode="s" horiz-adv-x="792" d="M20 170l76 41q29 -72 86.5 -107.5t155.5 -35.5q53 0 102 14t86 44t59.5 73t22.5 102q0 45 -16.5 75t-46 50t-69.5 32.5t-85 24.5q-119 33 -185.5 84t-66.5 148q0 141 98.5 224t256.5 83q111 0 181 -43t103 -123l-82 -41q-47 123 -213 123q-113 0 -181.5 -61.5 t-68.5 -147.5q0 -39 15.5 -64.5t44.5 -45t68.5 -33t91.5 -27.5q55 -14 101 -32.5t79 -47t51 -68.5t18 -98q0 -143 -93 -235t-281 -92q-121 0 -200 47t-108 137z" />
<glyph unicode="t" horiz-adv-x="487" d="M121 134q-1 13 -1 27q0 28 5 58l137 715h-125q4 18 7 36.5t8 35.5h124l54 276h90l-55 -276h172q-4 -16 -7.5 -35t-7.5 -37h-172l-133 -694q-6 -35 -7 -64t10 -50.5t38 -33.5t74 -12h61l-14 -80h-78q-59 0 -97 17.5t-58.5 47t-24.5 69.5z" />
<glyph unicode="u" horiz-adv-x="890" d="M86 178q-3 23 -3 48q0 36 7 75l135 707h88l-131 -691q-8 -38 -7 -73v-21q3 -45 23.5 -78.5t60.5 -53t106 -19.5q57 0 108 22.5t92 61.5t69 90t40 108l125 654h88l-197 -1008h-88l31 143h-6q-59 -84 -139 -119.5t-156 -35.5q-74 0 -125 24.5t-82 66t-39 99.5z" />
<glyph unicode="v" horiz-adv-x="747" d="M98 1008h90l64 -572q8 -76 15 -156.5t7 -168.5h7q125 207 233.5 426t198.5 471h98q-51 -139 -106.5 -267.5t-118 -251t-132 -243.5t-149.5 -246h-90z" />
<glyph unicode="w" horiz-adv-x="1243" d="M98 1008h90l43 -627q3 -61 7 -127q2 -42 3 -86q0 -25 -1 -51h4q104 193 207.5 419t199.5 472h103l51 -617q6 -63 10 -127.5t4 -138.5h4q113 199 213.5 421t182.5 462h92q-47 -139 -99.5 -267.5t-110 -251t-122 -243.5t-137.5 -246h-92l-54 639q-4 47 -7 109q-2 37 -2 79 q0 28 1 58h-6q-86 -236 -188.5 -453t-225.5 -432h-92z" />
<glyph unicode="x" horiz-adv-x="749" d="M-18 0l387 518q-4 6 -17.5 43t-32 89t-39 112.5t-39 113t-32.5 89t-16 43.5h100l137 -422l305 422h109l-373 -492q2 -6 17.5 -45t36 -94t43 -118.5t43 -119t34.5 -94.5t19 -45h-101l-153 444q-4 -6 -28 -38.5t-58.5 -81t-73.5 -102.5t-74 -102t-59.5 -82t-28.5 -38h-106z " />
<glyph unicode="y" horiz-adv-x="737" d="M-113 -322q72 6 136.5 34t119.5 106q25 33 42.5 61.5t39.5 75.5l-131 1051h88q10 -106 22.5 -212t24.5 -212q8 -66 15.5 -135.5t13.5 -139.5q6 -59 15.5 -137t9.5 -131h4q55 94 112.5 213t112.5 247t107.5 258t95.5 249h88q-135 -360 -263 -637t-259 -492 q-33 -55 -73 -105.5t-88 -87t-106.5 -59t-126.5 -22.5v75z" />
<glyph unicode="z" horiz-adv-x="722" d="M-35 0l15 78l673 852h-473l15 78h575l-14 -76l-672 -852h502l-17 -80h-604z" />
<glyph unicode="{" horiz-adv-x="452" d="M90 584l10 51q47 12 81 43t56.5 74t36 93t23.5 97l55 279q16 92 69.5 148t131.5 56h72l-13 -57h-45q-39 0 -64.5 -18.5t-43 -46t-26.5 -60.5t-15 -61l-53 -279q-25 -125 -81.5 -199.5t-103.5 -91.5l-2 -4q49 -16 72.5 -87.5t1.5 -190.5l-57 -305q-6 -31 -9.5 -65t3 -61.5 t24.5 -45t55 -17.5h47l-12 -59h-59q-78 0 -114 58.5t-17 152.5l55 288q25 131 15.5 206t-93.5 102z" />
<glyph unicode="|" horiz-adv-x="358" d="M150 -332v1802h69v-1802h-69z" />
<glyph unicode="}" horiz-adv-x="452" d="M-76 -223l13 59h45q37 0 63.5 18.5t43.5 46t26.5 61.5t15.5 67l57 293q23 121 75 192.5t108 87.5v4q-43 16 -69 91t-1 200l53 277q6 33 9.5 67.5t-3 62t-25 46t-54.5 18.5h-48l11 55h65q80 0 113 -58t14 -151l-55 -278q-10 -49 -14.5 -98.5t2 -91t27 -72.5t63.5 -43 l-10 -56q-90 -23 -130 -98.5t-65 -206.5l-57 -288q-16 -92 -69.5 -148.5t-135.5 -56.5h-68z" />
<glyph unicode="~" d="M51 481q45 55 102.5 88t118.5 33q51 0 95.5 -17.5t86.5 -38t84 -37.5t85 -17q41 0 76.5 17t76.5 71l51 -37q-41 -59 -94 -93t-121 -34q-47 0 -91 17.5t-87 36.5t-87 36.5t-87 17.5t-81 -21.5t-79 -62.5z" />
<glyph unicode="&#xa1;" horiz-adv-x="419" d="M35 -418q12 59 29.5 144.5t38 184.5t42 204.5t42 205t38 184.5t29.5 144h68l-195 -1067h-92zM283 895q4 29 10 55.5t12 55.5h105l-21 -111h-106z" />
<glyph unicode="&#xa2;" horiz-adv-x="768" d="M57 289q0 111 20.5 235.5t71 231t135.5 180.5t214 82l39 199h55l-39 -197q96 -6 159.5 -53t80.5 -133l-82 -39q-10 63 -56.5 101t-117.5 42l-168 -868q72 2 134 38.5t93 100.5l78 -41q-47 -86 -129 -133t-193 -47l-41 -213h-55l41 217q-70 8 -116 34.5t-73.5 66.5t-39 90 t-11.5 106zM150 297q0 -41 8 -78t26.5 -67.5t50 -52t78.5 -27.5l168 862q-100 -14 -164.5 -85t-101.5 -166t-51 -199.5t-14 -186.5z" />
<glyph unicode="&#xa3;" d="M-18 0q2 18 5 37.5t7 40.5q98 117 164.5 256t91.5 307h-154l15 72h143q0 6 1 13t1 15q0 74 -13.5 153t-13.5 150q0 80 26 152t75 125t118.5 84t157.5 31q131 0 206 -61.5t91 -190.5q-23 -8 -43 -14.5t-43 -12.5q-10 98 -61 148.5t-156 50.5q-57 0 -107.5 -22.5t-88 -65.5 t-59 -103.5t-21.5 -136.5q0 -66 11 -133.5t11 -146.5q0 -10 -1 -17.5t-1 -17.5h258q-4 -18 -7 -36t-7 -36h-252q-29 -164 -84 -300t-154 -259h594l-16 -82h-694z" />
<glyph unicode="&#xa5;" d="M27 356q4 16 7 33t7 33h289l26 141q0 12 -1 24.5t-1 22.5h-276l12 64h252q-41 188 -81 374.5t-81 376.5h90l154 -735h2q45 76 91 154t98.5 166t112.5 189t132 226h94l-454 -751h262q-2 -16 -5 -31.5t-7 -32.5h-285l-25 -63l-24 -125h299q-4 -16 -7 -32.5t-8 -33.5h-297 l-71 -356h-84q16 90 33.5 178t35.5 178h-290z" />
<glyph unicode="&#xa7;" horiz-adv-x="880" d="M27 -45q12 14 25.5 28.5t27.5 26.5q92 -90 229 -90q63 0 119.5 16.5t97.5 48t65.5 78t24.5 107.5q0 72 -54 128t-177 116q-117 59 -174 115.5t-57 140.5q0 90 53 163.5t145 124.5q-35 37 -54 77t-19 91q0 63 24.5 121t70.5 100t110.5 66.5t142.5 24.5q172 0 276 -101 l-57 -65q-47 47 -104.5 67.5t-120.5 20.5q-55 0 -102.5 -17.5t-81.5 -47t-53 -70.5t-19 -86q0 -41 18 -73t50 -59.5t72 -51t83 -46.5q45 -25 89 -51.5t79 -60t55 -75.5t20 -93q0 -86 -49 -158t-135 -129q55 -76 55 -166q0 -72 -28.5 -132t-80.5 -105t-124 -71t-158 -26 q-82 0 -158.5 32t-125.5 81zM242 686q0 -57 42 -101t98 -78t114.5 -60.5t93.5 -51.5q70 39 112.5 101.5t42.5 124.5q0 51 -25.5 87.5t-69.5 67.5t-105 62.5t-133 72.5q-66 -35 -118 -94t-52 -131z" />
<glyph unicode="&#xa8;" horiz-adv-x="841" d="M301 1223l18 104h99l-21 -104h-96zM643 1223l21 104h96l-21 -104h-96z" />
<glyph unicode="&#xa9;" horiz-adv-x="1519" d="M111 698q0 154 47 286t133 229.5t208 151.5t271 54q150 0 271.5 -54t207.5 -151.5t133.5 -229.5t47.5 -286t-47.5 -284.5t-133.5 -227t-207.5 -150.5t-271.5 -54q-152 0 -273.5 54t-207.5 150.5t-132 227.5t-46 284zM186 698q0 -137 42 -255.5t119 -205.5t184.5 -137.5 t238.5 -50.5t239.5 50.5t184.5 137.5t118 205.5t42 255.5t-42 257t-119 207t-184.5 137.5t-238.5 50.5q-135 0 -242.5 -51.5t-183.5 -139.5t-117 -206.5t-41 -254.5zM512 526v322q0 117 70.5 191.5t191.5 74.5q92 0 161 -49t85 -141l-70 -25q-12 66 -59 105.5t-117 39.5 q-92 0 -140 -57t-48 -135v-328q0 -78 48 -136t140 -58q70 0 115 39t59 108l74 -22q-18 -92 -87 -143.5t-161 -51.5q-123 0 -192.5 74t-69.5 192z" />
<glyph unicode="&#xaa;" horiz-adv-x="598" d="M106 758q0 37 5.5 82t13.5 86q12 68 35.5 126t57.5 99t82 64.5t110 23.5q53 0 96 -22.5t61 -61.5l17 76h73q-33 -164 -64.5 -332t-62.5 -332h-73q4 23 8 42.5t8 41.5q-35 -41 -82 -66.5t-112 -25.5q-51 0 -84 15.5t-52.5 43t-28 63.5t-8.5 77zM184 756q0 -55 27 -91 t92 -36q37 0 67.5 14t54.5 38t40 52.5t24 57.5q18 59 35 128.5t17 124.5q0 53 -32 89t-95 36q-104 0 -156 -94q-16 -29 -29.5 -69.5t-22.5 -84.5t-15.5 -88.5t-6.5 -76.5z" />
<glyph unicode="&#xab;" horiz-adv-x="763" d="M111 461l297 366h92l-297 -368l151 -365h-88zM377 461l297 366h92l-299 -368l154 -365h-89z" />
<glyph unicode="&#xac;" d="M68 549l14 76h749l-83 -437h-78l69 361h-671z" />
<glyph unicode="&#xad;" horiz-adv-x="708" d="M123 522l18 86h510l-16 -86h-512z" />
<glyph unicode="&#xae;" horiz-adv-x="1056" d="M129 1008q0 94 28.5 175t82 139t127 92t165.5 34q90 0 165 -34t127.5 -92t81 -139t28.5 -175t-28.5 -174t-81 -138.5t-126.5 -92.5t-166 -34t-166.5 34t-127 92.5t-81 138t-28.5 174.5zM184 1010q0 -84 24.5 -155t71 -123t110 -81.5t142.5 -29.5q80 0 144.5 30.5 t108.5 82.5t68 123t24 153t-25 152.5t-70 122.5t-108.5 82t-141.5 30q-80 0 -144 -30t-109.5 -82t-70 -122.5t-24.5 -152.5zM389 748v516h164q66 0 107.5 -37t41.5 -109q0 -47 -25.5 -85t-72.5 -54q25 -57 51.5 -115.5t53.5 -115.5h-66q-23 57 -47.5 112t-48.5 113h-101 v-225h-57zM446 1022h99q43 0 70.5 24.5t27.5 71.5q0 45 -28.5 68.5t-69.5 23.5h-99v-188z" />
<glyph unicode="&#xaf;" horiz-adv-x="847" d="M367 1225l16 82h475l-18 -82h-473z" />
<glyph unicode="&#xb0;" horiz-adv-x="659" d="M115 1208q0 45 17.5 86t47 70t69.5 46t85 17q49 0 89 -17t69.5 -46t46 -70t16.5 -86q0 -47 -17.5 -87t-47 -69.5t-69.5 -47t-87 -17.5q-45 0 -85 17.5t-69.5 47t-47 69.5t-17.5 87zM180 1208q0 -66 44 -111.5t110 -45.5t110.5 43.5t44.5 113.5q0 66 -45 112t-110 46 q-63 0 -108.5 -46t-45.5 -112z" />
<glyph unicode="&#xb1;" d="M-29 41l13 76h751l-16 -76h-748zM72 559l14 76h338l68 352h71l-65 -352h336l-15 -76h-336l-69 -354h-74l70 354h-338z" />
<glyph unicode="&#xb4;" horiz-adv-x="843" d="M510 1169l190 312l91 -37l-230 -297z" />
<glyph unicode="&#xb6;" horiz-adv-x="921" d="M133 1038q0 82 23.5 162t73 142.5t124 101.5t174.5 39h471q-4 -23 -7 -46.5t-7 -45.5h-115l-198 -1557h-92l198 1557h-170l-196 -1557h-93q29 225 56.5 449.5t56.5 451.5q-135 0 -217 78t-82 225z" />
<glyph unicode="&#xb7;" horiz-adv-x="317" d="M135 479l23 125h116l-24 -125h-115z" />
<glyph unicode="&#xb8;" horiz-adv-x="864" d="M119 -379l24 55q35 -16 67 -20t58 -4q45 0 85 23.5t40 76.5q0 45 -38 66.5t-85 17.5l-26 25l80 164h57l-64 -134q45 -4 75 -18t47.5 -32.5t24.5 -40t7 -42.5q0 -29 -12.5 -57.5t-38 -53t-65.5 -40t-97 -15.5q-29 0 -64.5 6.5t-74.5 22.5z" />
<glyph unicode="&#xba;" horiz-adv-x="587" d="M109 764q0 43 5 86t15 84q14 61 34.5 116.5t45.5 90.5q35 47 85 73.5t122 26.5q57 0 97 -17.5t65.5 -47t37 -68.5t11.5 -82q0 -41 -5.5 -86t-15.5 -88q-29 -143 -93 -219t-191 -76q-61 0 -102.5 16.5t-66 45t-34.5 65.5t-10 80zM182 758q0 -51 30 -91t110 -40 q57 0 96 23.5t63 64.5q18 31 30.5 69.5t22 81.5t13.5 85t4 77q0 66 -34.5 106t-106.5 40q-37 0 -68 -11.5t-55 -40.5q-25 -27 -44.5 -70.5t-31.5 -95.5q-12 -51 -20.5 -104t-8.5 -94z" />
<glyph unicode="&#xbb;" horiz-adv-x="763" d="M37 92l301 369l-156 366h88l158 -366l-299 -369h-92zM303 92l299 369l-153 366h88l157 -366l-301 -369h-90z" />
<glyph unicode="&#xbf;" horiz-adv-x="806" d="M51 -152q0 119 42 195t91 131q53 63 98.5 108.5t81 85.5t59 78.5t34.5 92.5l28 143h88q0 -6 -5 -28.5t-10 -48t-9 -48t-6 -29.5q-12 -61 -46 -116.5t-78 -105.5t-91 -99t-88 -99.5t-68 -105.5t-29 -117q0 -49 10.5 -90t35 -70.5t66.5 -47t105 -17.5q106 0 185.5 71.5 t105.5 176.5l88 -21q-45 -160 -148.5 -235.5t-244.5 -75.5t-218 75t-77 197zM512 897q6 29 12 56.5t11 56.5h106l-23 -113h-106z" />
<glyph unicode="&#xc0;" horiz-adv-x="972" d="M-57 0q172 358 342 712.5t344 712.5h98q35 -358 68.5 -712.5t68.5 -712.5h-92l-29 360h-536q-41 -92 -84 -180t-86 -180h-94zM246 442h491q-12 125 -22 249t-23 249q-8 92 -14 186.5t-16 186.5h-5l-165 -357q-8 -16 -27 -55t-44.5 -91t-52 -109.5t-52 -109.5t-44 -92 t-26.5 -57zM387 1675l53 80l281 -217l-31 -45z" />
<glyph unicode="&#xc1;" horiz-adv-x="972" d="M-57 0q172 358 342 712.5t344 712.5h98q35 -358 68.5 -712.5t68.5 -712.5h-92l-29 360h-536q-41 -92 -84 -180t-86 -180h-94zM246 442h491q-12 125 -22 249t-23 249q-8 92 -14 186.5t-16 186.5h-5l-165 -357q-8 -16 -27 -55t-44.5 -91t-52 -109.5t-52 -109.5t-44 -92 t-26.5 -57zM647 1536l309 219l56 -80q-84 -47 -166 -93t-166 -91q-8 10 -16.5 21.5t-16.5 23.5z" />
<glyph unicode="&#xc2;" horiz-adv-x="972" d="M-57 0q172 358 342 712.5t344 712.5h98q35 -358 68.5 -712.5t68.5 -712.5h-92l-29 360h-536q-41 -92 -84 -180t-86 -180h-94zM246 442h491q-12 125 -22 249t-23 249q-8 92 -14 186.5t-16 186.5h-5l-165 -357q-8 -16 -27 -55t-44.5 -91t-52 -109.5t-52 -109.5t-44 -92 t-26.5 -57zM406 1538l292 217h70l203 -215l-41 -37l-209 162l-285 -166z" />
<glyph unicode="&#xc3;" horiz-adv-x="972" d="M-57 0q172 358 342 712.5t344 712.5h98q35 -358 68.5 -712.5t68.5 -712.5h-92l-29 360h-536q-41 -92 -84 -180t-86 -180h-94zM246 442h491q-12 125 -22 249t-23 249q-8 92 -14 186.5t-16 186.5h-5l-165 -357q-8 -16 -27 -55t-44.5 -91t-52 -109.5t-52 -109.5t-44 -92 t-26.5 -57zM418 1577q78 113 178 113q33 0 62.5 -12.5t59.5 -28t58.5 -27.5t61.5 -12q31 0 59.5 17.5t60.5 58.5l52 -31q-35 -68 -86.5 -96.5t-96.5 -28.5q-35 0 -65.5 12t-59 27.5t-57.5 28t-57 12.5q-31 0 -58.5 -17.5t-60.5 -52.5z" />
<glyph unicode="&#xc4;" horiz-adv-x="972" d="M-57 0q172 358 342 712.5t344 712.5h98q35 -358 68.5 -712.5t68.5 -712.5h-92l-29 360h-536q-41 -92 -84 -180t-86 -180h-94zM246 442h491q-12 125 -22 249t-23 249q-8 92 -14 186.5t-16 186.5h-5l-165 -357q-8 -16 -27 -55t-44.5 -91t-52 -109.5t-52 -109.5t-44 -92 t-26.5 -57zM481 1530l19 104h98l-18 -104h-99zM813 1530l21 104h98l-21 -104h-98z" />
<glyph unicode="&#xc5;" horiz-adv-x="972" d="M-57 0q172 358 342 712.5t344 712.5h98q35 -358 68.5 -712.5t68.5 -712.5h-92l-29 360h-536q-41 -92 -84 -180t-86 -180h-94zM246 442h491q-12 125 -22 249t-23 249q-8 92 -14 186.5t-16 186.5h-5l-165 -357q-8 -16 -27 -55t-44.5 -91t-52 -109.5t-52 -109.5t-44 -92 t-26.5 -57zM547 1608q0 43 17.5 79.5t46 65.5t66.5 45.5t79 16.5q66 0 107.5 -40t41.5 -102q0 -43 -18.5 -82t-48 -66.5t-68.5 -44t-80 -16.5q-63 0 -103 41t-40 103zM604 1618q0 -43 26.5 -70.5t69.5 -27.5q57 0 101.5 42t44.5 101q0 41 -28 68.5t-73 27.5q-53 0 -97 -42 t-44 -99z" />
<glyph unicode="&#xc6;" horiz-adv-x="1581" d="M-37 0q236 358 470.5 712.5t469.5 712.5h776l-12 -86h-631l-80 -571h545q-4 -23 -6 -42t-4 -40h-547q-20 -152 -40.5 -301t-43.5 -299h631l-10 -86h-723q14 94 26.5 190.5t26.5 192.5h-498l-254 -383h-96zM369 467h452l125 870h-2z" />
<glyph unicode="&#xc7;" horiz-adv-x="935" d="M88 301q0 39 7 87t14 85l88 449q18 94 46.5 187t79 165t130 117t202.5 45q166 0 256 -80t105 -207q-23 -8 -45.5 -15.5t-46.5 -13.5q-4 98 -75 163t-194 65q-104 0 -169.5 -41t-106.5 -106.5t-62.5 -145.5t-35.5 -160l-78 -406q-10 -47 -15.5 -97t-5.5 -85 q0 -47 13.5 -90t43 -75.5t77.5 -53t118 -20.5q123 0 208 62.5t132 180.5q23 -8 43.5 -15t42.5 -13q-53 -147 -161.5 -219t-256.5 -76q-10 -20 -20 -44t-25 -53q45 -4 75 -18t47.5 -32.5t24.5 -40t7 -42.5q0 -29 -12.5 -57.5t-38 -53t-65.5 -40t-97 -15.5q-29 0 -64.5 6.5 t-74.5 22.5l24 55q35 -16 67 -20t58 -4q45 0 85 23.5t40 76.5q0 45 -38 66.5t-85 17.5l-26 25l61 129q-150 12 -223.5 97t-73.5 214z" />
<glyph unicode="&#xc8;" horiz-adv-x="892" d="M51 0l277 1425h714l-18 -84h-623l-110 -573h538l-16 -82h-537l-118 -602h622l-14 -84h-715zM408 1675l53 80l280 -217l-30 -45z" />
<glyph unicode="&#xc9;" horiz-adv-x="892" d="M51 0l277 1425h714l-18 -84h-623l-110 -573h538l-16 -82h-537l-118 -602h622l-14 -84h-715zM604 1536l309 219l58 -78l-334 -186z" />
<glyph unicode="&#xca;" horiz-adv-x="892" d="M51 0l277 1425h714l-18 -84h-623l-110 -573h538l-16 -82h-537l-118 -602h622l-14 -84h-715zM414 1538l293 217h69l203 -215l-41 -37l-209 162l-285 -166z" />
<glyph unicode="&#xcb;" horiz-adv-x="892" d="M51 0l277 1425h714l-18 -84h-623l-110 -573h538l-16 -82h-537l-118 -602h622l-14 -84h-715zM473 1530l19 104h98l-19 -104h-98zM805 1530l20 104h99l-21 -104h-98z" />
<glyph unicode="&#xcc;" horiz-adv-x="391" d="M68 0l278 1425h90l-276 -1425h-92zM100 1675l54 80l280 -217l-31 -45z" />
<glyph unicode="&#xcd;" horiz-adv-x="391" d="M68 0l278 1425h90l-276 -1425h-92zM379 1536l309 219l55 -78l-333 -186z" />
<glyph unicode="&#xce;" horiz-adv-x="391" d="M68 0l278 1425h90l-276 -1425h-92zM125 1538l293 217h69l203 -215l-41 -37l-209 162l-284 -166z" />
<glyph unicode="&#xcf;" horiz-adv-x="391" d="M68 0l278 1425h90l-276 -1425h-92zM199 1536l18 104h98l-18 -104h-98zM530 1536l19 104h98l-20 -104h-97z" />
<glyph unicode="&#xd0;" horiz-adv-x="1032" d="M29 723l16 72h158l123 630h389q176 0 252.5 -77.5t76.5 -217.5q0 -27 -4 -70.5t-12 -99t-17.5 -117t-21.5 -124.5q-31 -160 -60.5 -292t-64.5 -202q-35 -66 -79 -109.5t-97 -69.5t-114.5 -36t-129.5 -10h-393l139 723h-161zM158 84h299q115 0 196.5 44t122.5 124 q23 39 39.5 93t26.5 101q23 109 45 216.5t39 214.5q12 76 24.5 158.5t-3 150t-72 111.5t-179.5 44h-295q-29 -137 -54 -273t-52 -273h223l-14 -72h-223z" />
<glyph unicode="&#xd1;" horiz-adv-x="1107" d="M49 0l279 1425h88l424 -1232h4l239 1232h86l-274 -1425h-88q-53 160 -106.5 312.5t-105.5 305t-106.5 308t-109.5 319.5h-2q-10 -61 -28.5 -159.5t-41 -214t-46 -240.5t-47.5 -243t-43 -219t-32 -169h-90zM473 1552q78 113 178 113q33 0 62.5 -12.5t59.5 -27.5 t58.5 -27.5t61.5 -12.5q31 0 59.5 17.5t61.5 58.5l51 -31q-35 -68 -86 -96.5t-96 -28.5q-35 0 -66 12.5t-59.5 28t-57 27.5t-57.5 12q-31 0 -58.5 -17.5t-60.5 -51.5z" />
<glyph unicode="&#xd2;" horiz-adv-x="993" d="M90 264q-12 82 4 172l115 574q16 82 47 159.5t84 136t131 94.5t188 36q100 0 173 -34t118 -91.5t59.5 -134t-1.5 -162.5l-109 -596q-16 -88 -49 -167t-87 -137.5t-131 -93t-183 -34.5q-109 0 -185 36.5t-119 98t-55 143.5zM179 293.5q7 -64.5 38 -113.5t88 -78.5 t146 -29.5q86 0 147 28.5t102 76.5t67 109.5t38 127.5l113 596q12 63 3.5 124.5t-41 108.5t-91 77t-144.5 30q-84 0 -143.5 -30t-100.5 -78t-65.5 -110.5t-36.5 -125.5l-113 -576q-14 -72 -7 -136.5zM455 1675l53 80l280 -217l-30 -45z" />
<glyph unicode="&#xd3;" horiz-adv-x="993" d="M90 264q-12 82 4 172l115 574q16 82 47 159.5t84 136t131 94.5t188 36q100 0 173 -34t118 -91.5t59.5 -134t-1.5 -162.5l-109 -596q-16 -88 -49 -167t-87 -137.5t-131 -93t-183 -34.5q-109 0 -185 36.5t-119 98t-55 143.5zM179 293.5q7 -64.5 38 -113.5t88 -78.5 t146 -29.5q86 0 147 28.5t102 76.5t67 109.5t38 127.5l113 596q12 63 3.5 124.5t-41 108.5t-91 77t-144.5 30q-84 0 -143.5 -30t-100.5 -78t-65.5 -110.5t-36.5 -125.5l-113 -576q-14 -72 -7 -136.5zM616 1534l308 221q16 -20 28.5 -39.5t28.5 -40.5q-86 -47 -168 -93 t-166 -93q-8 12 -16 23.5t-15 21.5z" />
<glyph unicode="&#xd4;" horiz-adv-x="993" d="M90 264q-12 82 4 172l115 574q16 82 47 159.5t84 136t131 94.5t188 36q100 0 173 -34t118 -91.5t59.5 -134t-1.5 -162.5l-109 -596q-16 -88 -49 -167t-87 -137.5t-131 -93t-183 -34.5q-109 0 -185 36.5t-119 98t-55 143.5zM179 293.5q7 -64.5 38 -113.5t88 -78.5 t146 -29.5q86 0 147 28.5t102 76.5t67 109.5t38 127.5l113 596q12 63 3.5 124.5t-41 108.5t-91 77t-144.5 30q-84 0 -143.5 -30t-100.5 -78t-65.5 -110.5t-36.5 -125.5l-113 -576q-14 -72 -7 -136.5zM424 1538l293 217h69l203 -215l-41 -37l-209 162l-284 -166z" />
<glyph unicode="&#xd5;" horiz-adv-x="993" d="M90 264q-12 82 4 172l115 574q16 82 47 159.5t84 136t131 94.5t188 36q100 0 173 -34t118 -91.5t59.5 -134t-1.5 -162.5l-109 -596q-16 -88 -49 -167t-87 -137.5t-131 -93t-183 -34.5q-109 0 -185 36.5t-119 98t-55 143.5zM179 293.5q7 -64.5 38 -113.5t88 -78.5 t146 -29.5q86 0 147 28.5t102 76.5t67 109.5t38 127.5l113 596q12 63 3.5 124.5t-41 108.5t-91 77t-144.5 30q-84 0 -143.5 -30t-100.5 -78t-65.5 -110.5t-36.5 -125.5l-113 -576q-14 -72 -7 -136.5zM440 1577q78 113 178 113q33 0 63 -12.5t59.5 -28t58 -27.5t61.5 -12 q31 0 59.5 17.5t61.5 58.5l51 -31q-35 -68 -86 -96.5t-96 -28.5q-35 0 -65.5 12t-59.5 27.5t-57.5 28t-57.5 12.5q-31 0 -58.5 -17.5t-59.5 -52.5z" />
<glyph unicode="&#xd6;" horiz-adv-x="993" d="M90 264q-12 82 4 172l115 574q16 82 47 159.5t84 136t131 94.5t188 36q100 0 173 -34t118 -91.5t59.5 -134t-1.5 -162.5l-109 -596q-16 -88 -49 -167t-87 -137.5t-131 -93t-183 -34.5q-109 0 -185 36.5t-119 98t-55 143.5zM179 293.5q7 -64.5 38 -113.5t88 -78.5 t146 -29.5q86 0 147 28.5t102 76.5t67 109.5t38 127.5l113 596q12 63 3.5 124.5t-41 108.5t-91 77t-144.5 30q-84 0 -143.5 -30t-100.5 -78t-65.5 -110.5t-36.5 -125.5l-113 -576q-14 -72 -7 -136.5zM502 1530l18 104h98l-18 -104h-98zM834 1530l20 104h98l-20 -104h-98z " />
<glyph unicode="&#xd8;" horiz-adv-x="993" d="M0 14l115 158q-25 55 -30 122.5t9 141.5l115 574q16 82 47 159.5t84 136t131 94.5t188 36q100 0 173 -34t118 -93l99 133l47 -31l-113 -154q49 -106 25 -243l-109 -596q-16 -88 -49 -167t-87 -137.5t-131 -93t-183 -34.5q-111 0 -187 36.5t-119 100.5l-100 -137zM184 264 l707 963q-31 53 -91.5 88t-154.5 35q-84 0 -143.5 -30t-100.5 -78t-65.5 -110.5t-36.5 -125.5l-113 -576q-18 -86 -2 -166zM205 203q29 -59 88 -95t158 -36q86 0 147 28.5t102 76.5t67 109.5t38 127.5l113 596q8 41 8 80.5t-11 74.5z" />
<glyph unicode="&#xd9;" horiz-adv-x="1011" d="M99.5 242.5q-13.5 76.5 2.5 169.5l199 1013h90q-4 -20 -18.5 -96t-35 -180.5t-44 -224t-44 -224t-35.5 -182.5t-19 -100q-14 -70 -8 -132.5t35.5 -108.5t86 -73.5t142.5 -27.5t149.5 28.5t106.5 76.5t68.5 111.5t39.5 133.5l193 999h92q-6 -27 -20.5 -104.5t-35 -182 t-43 -221t-42 -221t-35 -182.5t-19.5 -102q-18 -90 -53 -168t-91 -135.5t-134 -89t-183 -31.5q-102 0 -174.5 31.5t-114.5 89t-55.5 134zM440 1675l54 80l280 -217l-31 -45z" />
<glyph unicode="&#xda;" horiz-adv-x="1011" d="M99.5 242.5q-13.5 76.5 2.5 169.5l199 1013h90q-4 -20 -18.5 -96t-35 -180.5t-44 -224t-44 -224t-35.5 -182.5t-19 -100q-14 -70 -8 -132.5t35.5 -108.5t86 -73.5t142.5 -27.5t149.5 28.5t106.5 76.5t68.5 111.5t39.5 133.5l193 999h92q-6 -27 -20.5 -104.5t-35 -182 t-43 -221t-42 -221t-35 -182.5t-19.5 -102q-18 -90 -53 -168t-91 -135.5t-134 -89t-183 -31.5q-102 0 -174.5 31.5t-114.5 89t-55.5 134zM629 1534l307 221l57 -80l-334 -186z" />
<glyph unicode="&#xdb;" horiz-adv-x="1011" d="M99.5 242.5q-13.5 76.5 2.5 169.5l199 1013h90q-4 -20 -18.5 -96t-35 -180.5t-44 -224t-44 -224t-35.5 -182.5t-19 -100q-14 -70 -8 -132.5t35.5 -108.5t86 -73.5t142.5 -27.5t149.5 28.5t106.5 76.5t68.5 111.5t39.5 133.5l193 999h92q-6 -27 -20.5 -104.5t-35 -182 t-43 -221t-42 -221t-35 -182.5t-19.5 -102q-18 -90 -53 -168t-91 -135.5t-134 -89t-183 -31.5q-102 0 -174.5 31.5t-114.5 89t-55.5 134zM442 1538l293 217h70l203 -215l-41 -37l-209 162l-285 -166z" />
<glyph unicode="&#xdc;" horiz-adv-x="1011" d="M99.5 242.5q-13.5 76.5 2.5 169.5l199 1013h90q-4 -20 -18.5 -96t-35 -180.5t-44 -224t-44 -224t-35.5 -182.5t-19 -100q-14 -70 -8 -132.5t35.5 -108.5t86 -73.5t142.5 -27.5t149.5 28.5t106.5 76.5t68.5 111.5t39.5 133.5l193 999h92q-6 -27 -20.5 -104.5t-35 -182 t-43 -221t-42 -221t-35 -182.5t-19.5 -102q-18 -90 -53 -168t-91 -135.5t-134 -89t-183 -31.5q-102 0 -174.5 31.5t-114.5 89t-55.5 134zM498 1530l18 104h98l-18 -104h-98zM829 1530l21 104h98l-20 -104h-99z" />
<glyph unicode="&#xdd;" horiz-adv-x="835" d="M209 1425h88q29 -117 52.5 -234.5t51.5 -234.5q14 -61 29.5 -127.5t32.5 -130.5h4q43 72 87 144.5t89 144.5l266 438h99l-516 -829l-115 -596h-88l114 596q-47 209 -96 415t-98 414zM532 1534l310 221l55 -80q-84 -47 -166 -93t-168 -93z" />
<glyph unicode="&#xde;" horiz-adv-x="964" d="M51 0l277 1423h92l-58 -288h293q164 0 253 -78t89 -226q0 -96 -27.5 -188t-86 -163.5t-149.5 -117t-220 -45.5h-309q-2 -12 -10.5 -58t-19.5 -100.5t-20.5 -100.5t-11.5 -58h-92zM221 401h299q94 0 165 34t119 90.5t72.5 131t24.5 158.5q0 111 -63.5 173.5t-194.5 62.5 h-295z" />
<glyph unicode="&#xdf;" horiz-adv-x="876" d="M27 0q53 274 104 546.5t105 549.5q16 82 42.5 152.5t69.5 122.5t106.5 83t151.5 31q139 0 214 -73t75 -200q0 -111 -52 -205t-163 -141q68 -31 99.5 -95t31.5 -144q0 -96 -19.5 -207t-65.5 -207t-124 -159.5t-196 -63.5h-58l14 78h33q92 0 152.5 53t96.5 131t51.5 169 t19.5 165q0 43 -6.5 85t-24.5 75.5t-52 54t-87 20.5h-35l16 78h31q61 0 107.5 28.5t77 74t46 99.5t15.5 107q0 86 -53.5 140.5t-151.5 54.5q-72 0 -119 -27.5t-77.5 -73t-47 -99.5t-28.5 -105l-211 -1098h-88z" />
<glyph unicode="&#xe0;" horiz-adv-x="876" d="M82 268q0 59 8 128t23 141q20 109 53 197.5t82 153t116.5 99.5t157.5 35q86 0 150.5 -40t89.5 -110l2 2l24 134h86l-196 -1008h-86l31 143h-5q-53 -72 -122.5 -113.5t-171.5 -41.5q-66 0 -112 21.5t-74.5 60.5t-42 89t-13.5 109zM172 279q0 -43 9 -82t30.5 -67t56.5 -44 t86 -16q57 0 104.5 22.5t83.5 59t61.5 83t41.5 93.5q29 90 46.5 181t27.5 175q8 51 -2 97t-35 80t-64 54.5t-88 20.5q-80 0 -135 -34t-91 -89t-58.5 -125t-36.5 -141q-16 -72 -26.5 -141.5t-10.5 -126.5zM418 1442l84 45l172 -320l-47 -24z" />
<glyph unicode="&#xe1;" horiz-adv-x="876" d="M82 268q0 59 8 128t23 141q20 109 53 197.5t82 153t116.5 99.5t157.5 35q86 0 150.5 -40t89.5 -110l2 2l24 134h86l-196 -1008h-86l31 143h-5q-53 -72 -122.5 -113.5t-171.5 -41.5q-66 0 -112 21.5t-74.5 60.5t-42 89t-13.5 109zM172 279q0 -43 9 -82t30.5 -67t56.5 -44 t86 -16q57 0 104.5 22.5t83.5 59t61.5 83t41.5 93.5q29 90 46.5 181t27.5 175q8 51 -2 97t-35 80t-64 54.5t-88 20.5q-80 0 -135 -34t-91 -89t-58.5 -125t-36.5 -141q-16 -72 -26.5 -141.5t-10.5 -126.5zM516 1169l191 312l90 -37l-230 -297z" />
<glyph unicode="&#xe2;" horiz-adv-x="876" d="M82 268q0 59 8 128t23 141q20 109 53 197.5t82 153t116.5 99.5t157.5 35q86 0 150.5 -40t89.5 -110l2 2l24 134h86l-196 -1008h-86l31 143h-5q-53 -72 -122.5 -113.5t-171.5 -41.5q-66 0 -112 21.5t-74.5 60.5t-42 89t-13.5 109zM172 279q0 -43 9 -82t30.5 -67t56.5 -44 t86 -16q57 0 104.5 22.5t83.5 59t61.5 83t41.5 93.5q29 90 46.5 181t27.5 175q8 51 -2 97t-35 80t-64 54.5t-88 20.5q-80 0 -135 -34t-91 -89t-58.5 -125t-36.5 -141q-16 -72 -26.5 -141.5t-10.5 -126.5zM311 1186l299 252h72l192 -250l-45 -37l-196 199l-287 -201z" />
<glyph unicode="&#xe3;" horiz-adv-x="876" d="M82 268q0 59 8 128t23 141q20 109 53 197.5t82 153t116.5 99.5t157.5 35q86 0 150.5 -40t89.5 -110l2 2l24 134h86l-196 -1008h-86l31 143h-5q-53 -72 -122.5 -113.5t-171.5 -41.5q-66 0 -112 21.5t-74.5 60.5t-42 89t-13.5 109zM172 279q0 -43 9 -82t30.5 -67t56.5 -44 t86 -16q57 0 104.5 22.5t83.5 59t61.5 83t41.5 93.5q29 90 46.5 181t27.5 175q8 51 -2 97t-35 80t-64 54.5t-88 20.5q-80 0 -135 -34t-91 -89t-58.5 -125t-36.5 -141q-16 -72 -26.5 -141.5t-10.5 -126.5zM309 1247q78 113 178 113q33 0 63 -12.5t59.5 -27.5t58 -27.5 t61.5 -12.5q31 0 59.5 17.5t61.5 58.5l51 -31q-35 -68 -86 -96.5t-96 -28.5q-35 0 -65.5 12.5t-59.5 27.5t-57.5 27.5t-57.5 12.5q-31 0 -58.5 -17.5t-60.5 -52.5z" />
<glyph unicode="&#xe4;" horiz-adv-x="876" d="M82 268q0 59 8 128t23 141q20 109 53 197.5t82 153t116.5 99.5t157.5 35q86 0 150.5 -40t89.5 -110l2 2l24 134h86l-196 -1008h-86l31 143h-5q-53 -72 -122.5 -113.5t-171.5 -41.5q-66 0 -112 21.5t-74.5 60.5t-42 89t-13.5 109zM172 279q0 -43 9 -82t30.5 -67t56.5 -44 t86 -16q57 0 104.5 22.5t83.5 59t61.5 83t41.5 93.5q29 90 46.5 181t27.5 175q8 51 -2 97t-35 80t-64 54.5t-88 20.5q-80 0 -135 -34t-91 -89t-58.5 -125t-36.5 -141q-16 -72 -26.5 -141.5t-10.5 -126.5zM369 1223l18 104h98l-20 -104h-96zM711 1223l20 104h96l-20 -104h-96 z" />
<glyph unicode="&#xe5;" horiz-adv-x="876" d="M82 268q0 59 8 128t23 141q20 109 53 197.5t82 153t116.5 99.5t157.5 35q86 0 150.5 -40t89.5 -110l2 2l24 134h86l-196 -1008h-86l31 143h-5q-53 -72 -122.5 -113.5t-171.5 -41.5q-66 0 -112 21.5t-74.5 60.5t-42 89t-13.5 109zM172 279q0 -43 9 -82t30.5 -67t56.5 -44 t86 -16q57 0 104.5 22.5t83.5 59t61.5 83t41.5 93.5q29 90 46.5 181t27.5 175q8 51 -2 97t-35 80t-64 54.5t-88 20.5q-80 0 -135 -34t-91 -89t-58.5 -125t-36.5 -141q-16 -72 -26.5 -141.5t-10.5 -126.5zM446 1274q0 43 17.5 80t46.5 65.5t66.5 45t78.5 16.5q66 0 108 -40 t42 -102q0 -43 -18.5 -81.5t-48 -66.5t-68.5 -44.5t-80 -16.5q-63 0 -103.5 41t-40.5 103zM504 1284q0 -43 26.5 -70.5t69.5 -27.5q57 0 101 42t44 101q0 41 -27.5 68.5t-72.5 27.5q-53 0 -97 -42t-44 -99z" />
<glyph unicode="&#xe6;" horiz-adv-x="1411" d="M27 211q0 88 29.5 154.5t83 112.5t127 69.5t163.5 23.5q59 0 120.5 -9t125.5 -17l31 162q29 98 -26.5 164.5t-178.5 66.5q-66 0 -129.5 -22.5t-114.5 -88.5l-63 50q59 78 145 110.5t172 32.5q96 0 176 -46t96 -143q25 39 57.5 75t72.5 61.5t88.5 41t103.5 13.5 q147 0 220 -67.5t73 -172.5q0 -164 -124 -253t-347 -89q-35 0 -80 3t-96 10q-8 -41 -13.5 -83t-5.5 -73q0 -113 48 -172t159 -59q80 0 147.5 35.5t108.5 95.5q16 -10 33.5 -19.5t34.5 -19.5q-117 -170 -334 -170q-109 0 -180.5 54t-87.5 146h-3q-66 -109 -156.5 -154.5 t-207.5 -45.5q-125 0 -196.5 59t-71.5 164zM115 227q0 -72 45.5 -115.5t154.5 -43.5q133 0 215 76.5t105 193.5l24 131q-61 10 -119.5 18.5t-115.5 8.5q-61 0 -117.5 -16.5t-99.5 -49.5t-67.5 -83t-24.5 -120zM766 530q41 -4 85 -8t79 -4q180 0 278.5 65.5t98.5 188.5 q0 78 -54.5 123t-154.5 45q-72 0 -127.5 -29.5t-95 -84t-66.5 -129t-43 -167.5z" />
<glyph unicode="&#xe7;" horiz-adv-x="753" d="M57 289q0 76 9.5 159.5t31 164.5t56 155t87 130t124 89t163.5 33q104 0 176 -47t89 -139l-82 -39q-10 66 -60.5 104.5t-126.5 38.5q-113 0 -185.5 -67.5t-114.5 -166t-58 -210t-16 -197.5q0 -45 9 -86t33.5 -73t65.5 -50t102 -18q76 0 140.5 36.5t95.5 102.5l78 -41 q-47 -84 -126 -130t-186 -50q-10 -20 -20 -44t-25 -53q45 -4 75 -18t47.5 -32.5t24.5 -40t7 -42.5q0 -29 -12.5 -57.5t-38 -53t-65.5 -40t-97 -15.5q-29 0 -64.5 6.5t-74.5 22.5l24 55q35 -16 67 -20t58 -4q45 0 85 23.5t40 76.5q0 45 -38 66.5t-85 17.5l-26 25l61 129 q-72 6 -120 33.5t-76.5 67.5t-40 91t-11.5 107z" />
<glyph unicode="&#xe8;" horiz-adv-x="831" d="M70 279q0 72 9 154.5t29.5 165.5t55.5 159t85 135t118.5 94t156.5 35q147 0 219 -67.5t72 -166.5q0 -164 -118.5 -257t-374.5 -93q-25 0 -69 2t-85 6q-6 -37 -10 -74.5t-4 -68.5q0 -106 46 -170.5t158 -64.5q72 0 143.5 34.5t112.5 94.5l66 -39q-53 -78 -136 -124 t-194 -46q-84 0 -138 26.5t-86 68.5t-44 94t-12 102zM182 526q37 -4 84 -7t76 -3q104 0 178 19.5t120 54.5t67.5 82t21.5 102q0 76 -55.5 122t-155.5 46q-70 0 -125 -30.5t-96 -86t-69.5 -131.5t-45.5 -168zM391 1442l84 45l172 -320l-47 -24z" />
<glyph unicode="&#xe9;" horiz-adv-x="831" d="M70 279q0 72 9 154.5t29.5 165.5t55.5 159t85 135t118.5 94t156.5 35q147 0 219 -67.5t72 -166.5q0 -164 -118.5 -257t-374.5 -93q-25 0 -69 2t-85 6q-6 -37 -10 -74.5t-4 -68.5q0 -106 46 -170.5t158 -64.5q72 0 143.5 34.5t112.5 94.5l66 -39q-53 -78 -136 -124 t-194 -46q-84 0 -138 26.5t-86 68.5t-44 94t-12 102zM182 526q37 -4 84 -7t76 -3q104 0 178 19.5t120 54.5t67.5 82t21.5 102q0 76 -55.5 122t-155.5 46q-70 0 -125 -30.5t-96 -86t-69.5 -131.5t-45.5 -168zM512 1169l190 312l91 -37l-230 -297z" />
<glyph unicode="&#xea;" horiz-adv-x="831" d="M70 279q0 72 9 154.5t29.5 165.5t55.5 159t85 135t118.5 94t156.5 35q147 0 219 -67.5t72 -166.5q0 -164 -118.5 -257t-374.5 -93q-25 0 -69 2t-85 6q-6 -37 -10 -74.5t-4 -68.5q0 -106 46 -170.5t158 -64.5q72 0 143.5 34.5t112.5 94.5l66 -39q-53 -78 -136 -124 t-194 -46q-84 0 -138 26.5t-86 68.5t-44 94t-12 102zM182 526q37 -4 84 -7t76 -3q104 0 178 19.5t120 54.5t67.5 82t21.5 102q0 76 -55.5 122t-155.5 46q-70 0 -125 -30.5t-96 -86t-69.5 -131.5t-45.5 -168zM281 1186l299 252h71l193 -250l-45 -37l-197 199l-287 -201z" />
<glyph unicode="&#xeb;" horiz-adv-x="831" d="M70 279q0 72 9 154.5t29.5 165.5t55.5 159t85 135t118.5 94t156.5 35q147 0 219 -67.5t72 -166.5q0 -164 -118.5 -257t-374.5 -93q-25 0 -69 2t-85 6q-6 -37 -10 -74.5t-4 -68.5q0 -106 46 -170.5t158 -64.5q72 0 143.5 34.5t112.5 94.5l66 -39q-53 -78 -136 -124 t-194 -46q-84 0 -138 26.5t-86 68.5t-44 94t-12 102zM182 526q37 -4 84 -7t76 -3q104 0 178 19.5t120 54.5t67.5 82t21.5 102q0 76 -55.5 122t-155.5 46q-70 0 -125 -30.5t-96 -86t-69.5 -131.5t-45.5 -168zM358 1223l19 104h98l-20 -104h-97zM700 1223l21 104h96l-20 -104 h-97z" />
<glyph unicode="&#xec;" horiz-adv-x="358" d="M115 0l194 1010h88l-194 -1010h-88zM158 1442l84 45l172 -320l-47 -24z" />
<glyph unicode="&#xed;" horiz-adv-x="358" d="M53 0l195 1010h88l-195 -1010h-88zM279 1169l190 312l90 -37l-229 -297z" />
<glyph unicode="&#xee;" horiz-adv-x="432" d="M94 1186l299 252h72l192 -250l-45 -37l-196 199l-287 -201zM104 0l195 1010h88l-194 -1010h-89z" />
<glyph unicode="&#xef;" horiz-adv-x="358" d="M53 0l195 1010h88l-195 -1010h-88zM113 1223l18 104h98l-20 -104h-96zM455 1223l20 104h96l-20 -104h-96z" />
<glyph unicode="&#xf0;" horiz-adv-x="872" d="M68 297q0 66 11 141.5t32.5 149.5t52.5 138.5t67 104.5q45 49 108.5 84t156.5 35q84 0 154.5 -43t99.5 -131h6q10 57 20 124t10 132q0 47 -6 88t-22 70l-183 -115l-28 49l184 119q-29 59 -92.5 95t-161.5 46l27 74q133 -12 202.5 -60t104.5 -106l160 105l30 -51 l-165 -105q33 -90 32 -213q0 -59 -14 -177t-41 -249t-61.5 -252t-75.5 -186q-43 -74 -123 -125t-197 -51q-86 0 -141 29.5t-88 74.5t-46 99.5t-13 105.5zM154 260.5q4 -55.5 26.5 -98.5t66.5 -69.5t118 -26.5q72 0 132 31.5t95 86.5q47 66 83 185.5t36 267.5 q0 111 -58.5 172t-160.5 61q-49 2 -90.5 -14t-75.5 -45q-66 -51 -108 -169t-62 -271q-6 -55 -2 -110.5z" />
<glyph unicode="&#xf1;" horiz-adv-x="884" d="M33 0l196 1008h86q-8 -37 -15 -74t-13 -74h4q59 84 141 121t160 37q76 0 127 -25.5t79.5 -68.5t36 -100.5t-5.5 -118.5l-137 -705h-88l133 680q8 47 8 92t-18 80t-57 56.5t-109 21.5q-78 0 -134 -31t-96 -81t-64.5 -115.5t-37.5 -133.5l-110 -569h-86zM309 1247 q78 113 178 113q33 0 63 -12.5t59.5 -27.5t58 -27.5t61.5 -12.5q31 0 59.5 17.5t61.5 58.5l51 -31q-35 -68 -86 -96.5t-96 -28.5q-35 0 -65.5 12.5t-59.5 27.5t-57.5 27.5t-57.5 12.5q-31 0 -58.5 -17.5t-60.5 -52.5z" />
<glyph unicode="&#xf2;" horiz-adv-x="851" d="M66 276q0 59 5 121t15 117q20 117 56 211t85 158q53 68 123 103.5t168 35.5q80 0 136.5 -26.5t91 -71.5t50 -101.5t15.5 -117.5q-2 -63 -12.5 -134t-24.5 -137q-23 -109 -55.5 -192.5t-80.5 -140t-116.5 -85t-163.5 -28.5q-88 0 -145 25.5t-90 66.5t-45 92t-12 104z M154 307q0 -47 7 -90t29.5 -77t64.5 -54t110 -20q94 0 160.5 47t101.5 133q20 45 37.5 103.5t31 120.5t20.5 124.5t7 118.5q0 111 -57.5 170t-157.5 59q-70 0 -127 -30.5t-96 -88.5q-25 -37 -48.5 -98t-42 -133t-29.5 -146.5t-11 -138.5zM377 1442l84 45l172 -320l-47 -24z " />
<glyph unicode="&#xf3;" horiz-adv-x="851" d="M66 276q0 59 5 121t15 117q20 117 56 211t85 158q53 68 123 103.5t168 35.5q80 0 136.5 -26.5t91 -71.5t50 -101.5t15.5 -117.5q-2 -63 -12.5 -134t-24.5 -137q-23 -109 -55.5 -192.5t-80.5 -140t-116.5 -85t-163.5 -28.5q-88 0 -145 25.5t-90 66.5t-45 92t-12 104z M154 307q0 -47 7 -90t29.5 -77t64.5 -54t110 -20q94 0 160.5 47t101.5 133q20 45 37.5 103.5t31 120.5t20.5 124.5t7 118.5q0 111 -57.5 170t-157.5 59q-70 0 -127 -30.5t-96 -88.5q-25 -37 -48.5 -98t-42 -133t-29.5 -146.5t-11 -138.5zM532 1169l191 312l90 -37l-229 -297 z" />
<glyph unicode="&#xf4;" horiz-adv-x="851" d="M66 276q0 59 5 121t15 117q20 117 56 211t85 158q53 68 123 103.5t168 35.5q80 0 136.5 -26.5t91 -71.5t50 -101.5t15.5 -117.5q-2 -63 -12.5 -134t-24.5 -137q-23 -109 -55.5 -192.5t-80.5 -140t-116.5 -85t-163.5 -28.5q-88 0 -145 25.5t-90 66.5t-45 92t-12 104z M154 307q0 -47 7 -90t29.5 -77t64.5 -54t110 -20q94 0 160.5 47t101.5 133q20 45 37.5 103.5t31 120.5t20.5 124.5t7 118.5q0 111 -57.5 170t-157.5 59q-70 0 -127 -30.5t-96 -88.5q-25 -37 -48.5 -98t-42 -133t-29.5 -146.5t-11 -138.5zM293 1186l299 252h72l192 -250 l-45 -37l-197 199l-286 -201z" />
<glyph unicode="&#xf5;" horiz-adv-x="851" d="M66 276q0 59 5 121t15 117q20 117 56 211t85 158q53 68 123 103.5t168 35.5q80 0 136.5 -26.5t91 -71.5t50 -101.5t15.5 -117.5q-2 -63 -12.5 -134t-24.5 -137q-23 -109 -55.5 -192.5t-80.5 -140t-116.5 -85t-163.5 -28.5q-88 0 -145 25.5t-90 66.5t-45 92t-12 104z M154 307q0 -47 7 -90t29.5 -77t64.5 -54t110 -20q94 0 160.5 47t101.5 133q20 45 37.5 103.5t31 120.5t20.5 124.5t7 118.5q0 111 -57.5 170t-157.5 59q-70 0 -127 -30.5t-96 -88.5q-25 -37 -48.5 -98t-42 -133t-29.5 -146.5t-11 -138.5zM287 1247q78 113 178 113 q33 0 62.5 -12.5t59 -27.5t58.5 -27.5t62 -12.5q31 0 59.5 17.5t60.5 58.5l52 -31q-35 -68 -86.5 -96.5t-96.5 -28.5q-35 0 -65.5 12.5t-59 27.5t-57.5 27.5t-57 12.5q-31 0 -58.5 -17.5t-60.5 -52.5z" />
<glyph unicode="&#xf6;" horiz-adv-x="851" d="M66 276q0 59 5 121t15 117q20 117 56 211t85 158q53 68 123 103.5t168 35.5q80 0 136.5 -26.5t91 -71.5t50 -101.5t15.5 -117.5q-2 -63 -12.5 -134t-24.5 -137q-23 -109 -55.5 -192.5t-80.5 -140t-116.5 -85t-163.5 -28.5q-88 0 -145 25.5t-90 66.5t-45 92t-12 104z M154 307q0 -47 7 -90t29.5 -77t64.5 -54t110 -20q94 0 160.5 47t101.5 133q20 45 37.5 103.5t31 120.5t20.5 124.5t7 118.5q0 111 -57.5 170t-157.5 59q-70 0 -127 -30.5t-96 -88.5q-25 -37 -48.5 -98t-42 -133t-29.5 -146.5t-11 -138.5zM352 1223l19 104h98l-20 -104h-97z M694 1223l21 104h96l-20 -104h-97z" />
<glyph unicode="&#xf7;" d="M66 549l16 76h754l-17 -76h-753zM313 246q2 37 31 61.5t62 24.5q29 0 46 -17.5t15 -46.5q-2 -35 -29.5 -61.5t-62.5 -26.5q-29 0 -46.5 18.5t-15.5 47.5zM440 897q2 37 29.5 61.5t62.5 24.5q27 0 44.5 -16.5t17.5 -44.5q-2 -35 -29.5 -61.5t-62.5 -26.5q-29 0 -46.5 18 t-15.5 45z" />
<glyph unicode="&#xf8;" horiz-adv-x="851" d="M4 23l88 106q-16 35 -21 72t-5 75q0 59 5 121t15 117q20 117 56 211t85 158q53 68 123 103.5t168 35.5q84 0 140.5 -28.5t91.5 -75.5l92 108l43 -33l-107 -125q16 -37 24.5 -78.5t8.5 -84.5q-2 -63 -12.5 -134t-24.5 -137q-23 -109 -55.5 -192.5t-80.5 -140t-116.5 -85 t-163.5 -28.5q-92 0 -148 26.5t-89 67.5l-78 -92zM154 307q0 -25 2 -49.5t6 -46.5l528 635q-55 96 -182 96q-70 0 -127 -30.5t-96 -88.5q-25 -37 -48.5 -98t-42 -133t-29.5 -146.5t-11 -138.5zM180 156q23 -41 65 -65.5t120 -24.5q94 0 160.5 47t101.5 133q20 45 37.5 103.5 t31 120.5t20.5 125t7 118q0 23 -3 41t-7 37z" />
<glyph unicode="&#xf9;" horiz-adv-x="890" d="M86 178.5q-8 57.5 4 122.5l135 707h88l-131 -691q-10 -49 -7 -94t23.5 -78.5t60.5 -53t106 -19.5q57 0 108 22.5t92 61.5t69 90t40 108l125 654h88l-197 -1008h-88l31 143h-6q-59 -84 -139 -119.5t-156 -35.5q-74 0 -125 24.5t-82 66.5t-39 99.5zM391 1442l84 45 l172 -320l-47 -24z" />
<glyph unicode="&#xfa;" horiz-adv-x="890" d="M86 178.5q-8 57.5 4 122.5l135 707h88l-131 -691q-10 -49 -7 -94t23.5 -78.5t60.5 -53t106 -19.5q57 0 108 22.5t92 61.5t69 90t40 108l125 654h88l-197 -1008h-88l31 143h-6q-59 -84 -139 -119.5t-156 -35.5q-74 0 -125 24.5t-82 66.5t-39 99.5zM543 1169l190 312 l90 -37l-229 -297z" />
<glyph unicode="&#xfb;" horiz-adv-x="890" d="M86 178.5q-8 57.5 4 122.5l135 707h88l-131 -691q-10 -49 -7 -94t23.5 -78.5t60.5 -53t106 -19.5q57 0 108 22.5t92 61.5t69 90t40 108l125 654h88l-197 -1008h-88l31 143h-6q-59 -84 -139 -119.5t-156 -35.5q-74 0 -125 24.5t-82 66.5t-39 99.5zM297 1186l299 252h72 l192 -250l-45 -37l-197 199l-286 -201z" />
<glyph unicode="&#xfc;" horiz-adv-x="890" d="M86 178.5q-8 57.5 4 122.5l135 707h88l-131 -691q-10 -49 -7 -94t23.5 -78.5t60.5 -53t106 -19.5q57 0 108 22.5t92 61.5t69 90t40 108l125 654h88l-197 -1008h-88l31 143h-6q-59 -84 -139 -119.5t-156 -35.5q-74 0 -125 24.5t-82 66.5t-39 99.5zM362 1223l19 104h98 l-20 -104h-97zM705 1223l20 104h96l-20 -104h-96z" />
<glyph unicode="&#xfd;" horiz-adv-x="737" d="M-113 -322q72 6 136.5 34t119.5 106q25 33 42.5 61.5t39.5 75.5l-131 1051h88q10 -106 22.5 -212t24.5 -212q8 -66 15.5 -135.5t13.5 -139.5q6 -59 15.5 -137t9.5 -131h4q55 94 112.5 213t112.5 247t107.5 258t95.5 249h88q-135 -360 -263 -637t-259 -492 q-33 -55 -73 -105.5t-88 -87t-106.5 -59t-126.5 -22.5v75zM434 1169l191 312l90 -37l-230 -297z" />
<glyph unicode="&#xfe;" horiz-adv-x="864" d="M-66 -408q23 119 51.5 267.5t61.5 312.5t66.5 337t66.5 338t62.5 313.5t52.5 266.5h86l-109 -550h4q53 68 121 107.5t164 39.5q129 0 188.5 -69.5t59.5 -198.5q-2 -63 -10 -139t-23 -138q-23 -104 -53.5 -194t-78.5 -154.5t-115.5 -101.5t-166.5 -37q-96 0 -150 43 t-81 106h-4l-107 -549h-86zM172 291q0 -45 9 -84t32 -68.5t57.5 -47t87.5 -17.5q84 0 140.5 36.5t93.5 96t60.5 137.5t39.5 158q12 57 18.5 113.5t6.5 109.5q0 45 -8.5 84t-30 67.5t-58.5 46t-94 17.5q-98 0 -167.5 -61.5t-100.5 -151.5q-33 -92 -53.5 -191.5t-30.5 -191.5 q-2 -12 -2 -25.5v-27.5z" />
<glyph unicode="&#xff;" horiz-adv-x="737" d="M-113 -322q72 6 136.5 34t119.5 106q25 33 42.5 61.5t39.5 75.5l-131 1051h88q10 -106 22.5 -212t24.5 -212q8 -66 15.5 -135.5t13.5 -139.5q6 -59 15.5 -137t9.5 -131h4q55 94 112.5 213t112.5 247t107.5 258t95.5 249h88q-135 -360 -263 -637t-259 -492 q-33 -55 -73 -105.5t-88 -87t-106.5 -59t-126.5 -22.5v75zM260 1223l19 104h98l-21 -104h-96zM602 1223l21 104h96l-21 -104h-96z" />
<glyph unicode="&#x131;" horiz-adv-x="358" d="M53 0l195 1010h88l-195 -1010h-88z" />
<glyph unicode="&#x152;" horiz-adv-x="1376" d="M110.5 264q-12.5 82 4.5 172l110 574q16 82 44 159.5t77 136t128 94.5t196 36q55 0 112 -11h695l-19 -84h-606l-111 -573h539l-16 -82h-537l-119 -602h623l-14 -84h-627q-29 -6 -57.5 -10t-63.5 -4q-109 0 -184.5 36.5t-118.5 98t-55.5 143.5zM200 293.5 q7 -64.5 37.5 -113.5t88 -78.5t145.5 -29.5h45l244 1265q-41 12 -94 13q-90 0 -150.5 -30t-100.5 -78t-63.5 -110.5t-36.5 -125.5l-108 -576q-14 -72 -7 -136.5z" />
<glyph unicode="&#x153;" horiz-adv-x="1435" d="M66 276q0 59 5 121t15 117q20 117 56 211t85 158q53 68 123 103.5t168 35.5q63 0 111.5 -17.5t82 -47t56.5 -69.5t33 -85q53 96 135 157.5t203 61.5q147 0 219 -67.5t72 -166.5q0 -164 -119 -257t-375 -93q-25 0 -69 2t-85 6q-6 -37 -10 -74.5t-4 -68.5q0 -106 46 -170.5 t159 -64.5q72 0 143.5 34.5t112.5 94.5l65 -39q-53 -78 -136 -124t-193 -46q-66 0 -113 16t-79 44t-51.5 63.5t-27.5 74.5q-51 -98 -131 -148t-205 -50q-88 0 -145 25.5t-90 66.5t-45 92t-12 104zM154 307q0 -47 7 -90t29.5 -77t64.5 -54t110 -20q94 0 160.5 47t101.5 133 q20 45 37.5 103.5t31 120.5t20.5 124.5t7 118.5q0 111 -57.5 170t-157.5 59q-70 0 -127 -30.5t-96 -88.5q-25 -37 -48.5 -98t-42 -133t-29.5 -146.5t-11 -138.5zM797 526q37 -4 84 -7t75 -3q104 0 178 19.5t120 54.5t67.5 82t21.5 102q0 76 -55 122t-155 46 q-70 0 -125.5 -30.5t-96.5 -86t-69.5 -131.5t-44.5 -168z" />
<glyph unicode="&#x178;" horiz-adv-x="835" d="M209 1425h88q29 -117 52.5 -234.5t51.5 -234.5q14 -61 29.5 -127.5t32.5 -130.5h4q43 72 87 144.5t89 144.5l266 438h99l-516 -829l-115 -596h-88l114 596q-47 209 -96 415t-98 414zM420 1530l18 104h99l-19 -104h-98zM752 1530l20 104h98l-20 -104h-98z" />
<glyph unicode="&#x192;" d="M-51 -170q0 2 5 13.5t10 24.5t9 23.5t7 14.5q49 -16 94 -17q90 0 148.5 68t94.5 233l125 566h-174l8 80h183l53 243q16 78 43 143.5t67 112.5t95 74t129 27q31 0 62.5 -5.5t58.5 -13.5l-27 -82q-25 8 -52.5 13.5t-51.5 5.5q-80 0 -142.5 -62.5t-95.5 -214.5l-51 -241h209 l-8 -80h-218l-122 -561q-41 -186 -117 -285.5t-217 -99.5q-29 0 -63 5t-62 15z" />
<glyph unicode="&#x2c6;" horiz-adv-x="847" d="M309 1186l299 252h72l192 -250l-45 -37l-196 199l-287 -201z" />
<glyph unicode="&#x2c7;" horiz-adv-x="847" d="M317 1386l48 39l200 -198l283 198l33 -39l-291 -251h-72z" />
<glyph unicode="&#x2d8;" horiz-adv-x="874" d="M365 1401h75q-4 -63 39 -109.5t109 -46.5t124 44t81 112h79q-12 -41 -35.5 -83t-59.5 -75t-84 -53.5t-109 -20.5t-105.5 20.5t-71 53.5t-37 74t-5.5 84z" />
<glyph unicode="&#x2d9;" horiz-adv-x="829" d="M526 1219l21 104h98l-20 -104h-99z" />
<glyph unicode="&#x2da;" horiz-adv-x="847" d="M453 1274q0 43 17 80t46 65.5t67 45t79 16.5q66 0 107.5 -40t41.5 -102q0 -43 -18.5 -81.5t-48 -66.5t-68.5 -44.5t-80 -16.5q-63 0 -103 41t-40 103zM510 1284q0 -43 26.5 -70.5t69.5 -27.5q57 0 101.5 42t44.5 101q0 41 -28 68.5t-73 27.5q-53 0 -97 -42t-44 -99z" />
<glyph unicode="&#x2db;" horiz-adv-x="778" d="M324 -225q0 41 27.5 102.5t99.5 128.5l63 -2l2 -4q-57 -57 -83.5 -111.5t-26.5 -95.5q0 -76 83 -76q45 0 113 37l14 -65q-33 -18 -75.5 -31.5t-83.5 -13.5q-66 0 -99.5 37.5t-33.5 93.5z" />
<glyph unicode="&#x2dc;" horiz-adv-x="864" d="M309 1247q78 113 178 113q33 0 63 -12.5t59.5 -27.5t58 -27.5t61.5 -12.5q31 0 59.5 17.5t61.5 58.5l51 -31q-35 -68 -86 -96.5t-96 -28.5q-35 0 -65.5 12.5t-59.5 27.5t-57.5 27.5t-57.5 12.5q-31 0 -58.5 -17.5t-60.5 -52.5z" />
<glyph unicode="&#x2dd;" horiz-adv-x="864" d="M436 1169l191 312l92 -37l-234 -297zM629 1169l192 312l90 -37l-231 -297z" />
<glyph unicode="&#x3a9;" horiz-adv-x="987" d="M-18 0l14 84h188l4 2q-74 53 -96 145.5t0 204.5l109 574q16 82 47 159.5t84 136t131 94.5t188 36q100 0 174 -34t120 -91.5t61.5 -134t-0.5 -162.5l-109 -596q-20 -109 -71.5 -198t-135.5 -134l2 -2h166l-14 -84h-307l20 96q45 12 86 45t73 76t54.5 94t32.5 103l112 596 q12 63 4 124.5t-40.5 108.5t-91 77t-144.5 30q-90 0 -150.5 -30t-101.5 -78t-64.5 -110.5t-35.5 -125.5l-107 -576q-10 -53 -9 -104.5t16.5 -95.5t46 -77.5t77.5 -52.5l-18 -100h-315z" />
<glyph unicode="&#x3c0;" horiz-adv-x="897" d="M39 0l194 1008h660l-195 -1008h-90l183 932h-484l-182 -932h-86z" />
<glyph unicode="&#x401;" horiz-adv-x="892" d="M51 0l277 1425h714l-18 -84h-623l-110 -573h538l-16 -82h-537l-118 -602h622l-14 -84h-715zM477 1530l19 104h98l-19 -104h-98zM809 1530l20 104h99l-21 -104h-98z" />
<glyph unicode="&#x402;" horiz-adv-x="1171" d="M170 1341l16 82h881l-16 -82h-455q-27 -135 -52.5 -270t-54.5 -270q2 0 5 -2q31 37 69.5 66.5t81.5 51t89 34t89 12.5q131 0 211 -74t80 -234q0 -127 -25.5 -249.5t-84 -220t-153.5 -158t-233 -60.5q-18 0 -28 2l16 74h23q109 0 184.5 53.5t122.5 137t68.5 189 t21.5 208.5q0 57 -11 102t-37 78t-69 50.5t-106 17.5q-57 0 -110.5 -21.5t-98.5 -57.5t-81 -82t-58 -95l-119 -623h-88l260 1341h-338z" />
<glyph unicode="&#x403;" horiz-adv-x="868" d="M51 0l277 1425h708l-16 -86h-617q-2 -8 -13 -67.5t-28.5 -152.5t-40 -209.5t-47 -239.5t-47 -240t-40 -210t-29 -152.5t-13.5 -67.5h-94zM610 1536l310 219l57 -78l-334 -186z" />
<glyph unicode="&#x404;" horiz-adv-x="931" d="M88 301q0 39 7 87t14 85l88 449q18 94 46.5 187t79 165t130 117t202.5 45q166 0 256 -80t105 -207q-23 -8 -45.5 -15.5t-46.5 -13.5q-4 98 -75 163t-194 65q-104 0 -169.5 -41t-106.5 -106.5t-62.5 -145.5t-35.5 -160l-25 -131h457l-19 -84h-454l-37 -191 q-10 -47 -15.5 -97t-5.5 -85q0 -47 13.5 -90t43 -75.5t77.5 -53t118 -20.5q123 0 208 62.5t132 180.5q23 -8 43.5 -15t42.5 -13q-53 -150 -163.5 -222.5t-264.5 -72.5q-172 0 -258 88t-86 225z" />
<glyph unicode="&#x405;" horiz-adv-x="935" d="M47 215l84 45q25 -86 98.5 -136t198.5 -50q90 0 156.5 28.5t109.5 75.5t64.5 109.5t21.5 130.5q0 63 -17.5 106t-50 72t-78.5 49.5t-104 38.5q-84 29 -143 59.5t-97 68.5t-55.5 86t-17.5 112q0 92 28.5 171t84 135t134.5 89t181 33q137 0 219 -50.5t121 -132.5l-84 -51 q-29 70 -95.5 108t-164.5 38q-80 0 -141.5 -28t-101.5 -74t-60.5 -104.5t-20.5 -121.5q0 -55 17.5 -93t50.5 -66.5t82 -50t113 -44.5q72 -25 127 -53.5t94 -66.5t58.5 -89t19.5 -123q0 -205 -120 -326.5t-343 -121.5q-150 0 -243 61.5t-126 165.5z" />
<glyph unicode="&#x406;" horiz-adv-x="391" d="M68 0l278 1425h90l-276 -1425h-92z" />
<glyph unicode="&#x407;" horiz-adv-x="393" d="M68 0l278 1425h90l-276 -1425h-92zM193 1581l20 102h98l-20 -102h-98zM537 1581l20 102h98l-20 -102h-98z" />
<glyph unicode="&#x408;" horiz-adv-x="778" d="M-37 86l64 61q16 -18 40.5 -31.5t52 -23.5t55.5 -15t52 -5q53 0 101.5 13t88.5 47t70.5 90.5t47.5 144.5l206 1058h93l-209 -1079q-37 -190 -136.5 -274t-267.5 -84q-72 0 -145.5 25.5t-112.5 72.5z" />
<glyph unicode="&#x409;" horiz-adv-x="1574" d="M-68 43q66 37 117 79t93 112.5t77 180t70 283.5l141 727h594l-123 -641h287q88 0 152.5 -24.5t106.5 -66.5t62.5 -99t20.5 -123q0 -104 -33 -191t-94.5 -149.5t-150.5 -96.5t-199 -34h-396l258 1341h-411l-127 -653q-35 -176 -73 -296t-87 -201.5t-111.5 -133 t-142.5 -88.5zM766 86h293q88 0 157.5 28.5t118.5 78t75 117t26 147.5q0 106 -63.5 173.5t-192.5 67.5h-295z" />
<glyph unicode="&#x40a;" horiz-adv-x="1556" d="M37 0l276 1425h95l-127 -645h512l125 645h92l-127 -645h286q88 0 152.5 -24.5t106.5 -67.5t62.5 -100t20.5 -123q0 -104 -31.5 -190.5t-93 -146.5t-149.5 -94t-199 -34h-397l135 696h-512l-133 -696h-94zM748 86h294q88 0 157 27.5t117 77t73.5 116t25.5 146.5 q0 104 -62.5 172.5t-191.5 68.5h-295z" />
<glyph unicode="&#x40b;" horiz-adv-x="1179" d="M178 1341l17 84h884l-16 -84h-459l-100 -522h4q68 72 157 108t166 36q158 0 234 -86t45 -240l-123 -637h-90l121 614q23 121 -25.5 194t-189.5 73q-53 0 -103.5 -17.5t-95.5 -48.5t-80 -75t-55 -97l-125 -643h-90l260 1341h-336z" />
<glyph unicode="&#x40c;" horiz-adv-x="968" d="M49 0l275 1425h90l-125 -641h239q35 0 75 9.5t80 34t79 66.5t69 110l203 421h88l-190 -403q-47 -104 -108.5 -176t-139.5 -94q90 -25 121 -98.5t37 -180.5l28 -473h-88l-26 469q-4 72 -21.5 117t-46.5 70.5t-65.5 34.5t-79.5 9h-271l-135 -700h-88zM571 1536l308 219 l57 -78l-334 -186z" />
<glyph unicode="&#x40e;" horiz-adv-x="905" d="M59 -14l15 73h47q57 0 118.5 47.5t114.5 151.5l43 82q-41 272 -82 541.5t-82 541.5h93l71 -489q4 -23 13.5 -91.5t20.5 -145t19.5 -144.5t12.5 -90q2 0 3 1t3 1q51 98 102.5 198.5t104.5 198.5l287 563h98l-598 -1140q-78 -152 -160 -225.5t-180 -73.5h-64zM422 1681h76 q-4 -63 39 -109t108 -46q66 0 124 44t81 111h80q-12 -41 -36 -83t-59.5 -74.5t-84 -53t-109.5 -20.5t-105 20.5t-71 53t-37 73.5t-6 84z" />
<glyph unicode="&#x40f;" horiz-adv-x="1038" d="M47 0l264 1425h92l-249 -1339h596l249 1339h95l-265 -1425h-344l-55 -293h-94l55 293h-344z" />
<glyph unicode="&#x410;" horiz-adv-x="972" d="M-57 0q172 358 342 712.5t344 712.5h98q35 -358 68.5 -712.5t68.5 -712.5h-92l-29 360h-536q-41 -92 -84 -180t-86 -180h-94zM246 442h491q-12 125 -22 249t-23 249q-8 92 -14 186.5t-16 186.5h-5l-165 -357q-8 -16 -27 -55t-44.5 -91t-52 -109.5t-52 -109.5t-44 -92 t-26.5 -57z" />
<glyph unicode="&#x411;" horiz-adv-x="944" d="M12 0l277 1425h663l-18 -84h-569q-10 -51 -23.5 -123.5t-29 -149.5t-30 -148.5t-22.5 -122.5h287q74 0 135 -21.5t107.5 -61.5t72 -97.5t25.5 -131.5q0 -102 -31 -190t-91 -153.5t-149.5 -103.5t-205.5 -38h-398zM121 86h278q174 0 284 97.5t112 283.5q0 111 -66.5 178.5 t-196.5 67.5h-288q-12 -57 -28.5 -141.5t-34 -173.5t-34 -172t-26.5 -140z" />
<glyph unicode="&#x412;" horiz-adv-x="1005" d="M49 0l277 1425h381q158 0 242.5 -76.5t84.5 -215.5q0 -133 -63.5 -240t-202.5 -150l-2 -4q86 -18 129 -94t43 -168q-2 -127 -42 -218t-105.5 -148.5t-149.5 -84t-176 -26.5h-416zM154 84h327q90 0 159 31.5t115 86t68.5 123t22.5 142.5q0 109 -57.5 171t-178.5 62h-336z M291 780h217q29 0 58.5 1t58.5 3q70 2 129 28t101 69t65.5 100t23.5 127q0 113 -67.5 173t-196.5 60h-281q-29 -141 -55.5 -280t-52.5 -281z" />
<glyph unicode="&#x413;" horiz-adv-x="868" d="M51 0l277 1425h708l-16 -86h-617q-2 -8 -13 -67.5t-28.5 -152.5t-40 -209.5t-47 -239.5t-47 -240t-40 -210t-29 -152.5t-13.5 -67.5h-94z" />
<glyph unicode="&#x414;" horiz-adv-x="1157" d="M-109 -291q16 92 34 183.5t34 183.5q18 2 36.5 3t37.5 5q39 31 78 74t73.5 105.5t65.5 146.5t55 192l191 823h710q-66 -338 -130 -671.5t-130 -671.5h90l-73 -373h-86q16 74 28.5 146.5t28.5 144.5h-903l-54 -291h-86zM152 80h702q59 317 120.5 630.5t123.5 630.5h-535 l-168 -727q-29 -123 -56.5 -207.5t-57 -144t-61.5 -102.5t-68 -80z" />
<glyph unicode="&#x415;" horiz-adv-x="892" d="M51 0l277 1425h714l-18 -84h-623l-110 -573h538l-16 -82h-537l-118 -602h622l-14 -84h-715z" />
<glyph unicode="&#x416;" horiz-adv-x="1521" d="M-53 0q94 233 203 467q25 51 50 97t57 82t71 61.5t90 37.5q-74 23 -104.5 94.5t-39.5 176.5l-32 407h84l36 -426q4 -68 25 -110.5t51.5 -67t67.5 -34t74 -9.5h200q33 162 63.5 324t61.5 325h90l-125 -649h183q35 0 78 10.5t88 38t87 74.5t76 119l191 405h86l-172 -381 q-51 -113 -117.5 -193.5t-146.5 -103.5q88 -25 119.5 -99.5t35.5 -178.5l31 -467h-90q-6 117 -12.5 231.5t-14.5 231.5q-4 72 -22.5 117t-46 70.5t-64.5 34.5t-80 9h-225l-133 -694h-90l135 694h-209q-45 0 -87 -8t-82 -32.5t-78 -69.5t-72 -121l-203 -463h-88z" />
<glyph unicode="&#x417;" horiz-adv-x="942" d="M16 276q12 8 39 15.5t47 15.5q0 -63 22.5 -108t60.5 -74t88.5 -42t105.5 -13q82 0 148.5 31.5t113.5 89t73.5 137.5t26.5 174q0 92 -53 149.5t-139 57.5h-123l16 86h121q59 0 112.5 24.5t92.5 68.5t61.5 107.5t22.5 143.5q0 104 -68.5 157.5t-173.5 53.5 q-115 0 -205 -56.5t-131 -163.5l-81 37q57 137 168.5 203t254.5 66q162 0 247 -79t85 -204q0 -55 -12 -116.5t-41 -118t-76 -100.5t-114 -64h-3q0 -2 1.5 -3t1.5 -3q41 -16 66.5 -43t39.5 -60t19.5 -67.5t5.5 -67.5q0 -121 -34 -217t-95.5 -164t-147.5 -104.5t-192 -36.5 q-70 0 -132.5 16t-110.5 52t-77 90.5t-31 129.5z" />
<glyph unicode="&#x418;" horiz-adv-x="1073" d="M43 0l276 1425h91l-240 -1226q2 0 4 -2l352 489l535 739h84l-277 -1425h-88q59 307 120 613.5t120 615.5h-2q-12 -14 -26.5 -33.5t-46.5 -64t-88 -120t-148 -204.5q-117 -162 -258.5 -360.5t-319.5 -446.5h-88z" />
<glyph unicode="&#x419;" horiz-adv-x="1073" d="M43 0l276 1425h91l-240 -1226q2 0 4 -2l352 489l535 739h84l-277 -1425h-88q59 307 120 613.5t120 615.5h-2q-12 -14 -26.5 -33.5t-46.5 -64t-88 -120t-148 -204.5q-117 -162 -258.5 -360.5t-319.5 -446.5h-88zM537 1729h75q-4 -63 39 -109.5t109 -46.5t124 44t81 112h79 q-12 -41 -35.5 -83t-59.5 -75t-84 -53.5t-109 -20.5t-105.5 20.5t-71 53.5t-37 74t-5.5 84z" />
<glyph unicode="&#x41a;" horiz-adv-x="980" d="M49 0l275 1425h90l-125 -641h239q35 0 75 9.5t80 34t79 66.5t69 110l203 421h88l-190 -403q-47 -104 -108.5 -176t-139.5 -94q90 -25 121 -98.5t37 -180.5l28 -473h-88l-26 469q-4 72 -21.5 117t-46.5 70.5t-65.5 34.5t-79.5 9h-271l-135 -700h-88z" />
<glyph unicode="&#x41b;" horiz-adv-x="1058" d="M-72 41q68 39 118 81t91 116.5t77 196.5t77 323l129 667h694l-276 -1425h-93l261 1339h-514l-130 -659q-35 -176 -72.5 -295t-84.5 -199t-106.5 -130t-139.5 -85q-10 18 -16 36t-15 34z" />
<glyph unicode="&#x41c;" horiz-adv-x="1290" d="M47 0l279 1425h88q55 -256 112.5 -505.5t114.5 -503.5h2q14 25 61.5 99.5t110 175t133 215t134 219t113.5 185.5t71 115h96l-279 -1425h-88q57 299 116.5 602t117.5 602h-2q-141 -236 -283.5 -465t-290.5 -460h-69q-53 227 -106.5 453t-106.5 456h-2l-232 -1188h-90z" />
<glyph unicode="&#x41d;" horiz-adv-x="1048" d="M51 0l279 1425h90l-129 -657h604l127 657h92l-278 -1425h-91l134 684h-603l-133 -684h-92z" />
<glyph unicode="&#x41e;" horiz-adv-x="993" d="M90 264q-12 82 4 172l115 574q16 82 47 159.5t84 136t131 94.5t188 36q100 0 173 -34t118 -91.5t59.5 -134t-1.5 -162.5l-109 -596q-16 -88 -49 -167t-87 -137.5t-131 -93t-183 -34.5q-109 0 -185 36.5t-119 98t-55 143.5zM179 293.5q7 -64.5 38 -113.5t88 -78.5 t146 -29.5q86 0 147 28.5t102 76.5t67 109.5t38 127.5l113 596q12 63 3.5 124.5t-41 108.5t-91 77t-144.5 30q-84 0 -143.5 -30t-100.5 -78t-65.5 -110.5t-36.5 -125.5l-113 -576q-14 -72 -7 -136.5z" />
<glyph unicode="&#x41f;" horiz-adv-x="1044" d="M51 0l277 1425h780l-277 -1425h-90l260 1343h-600l-260 -1343h-90z" />
<glyph unicode="&#x420;" horiz-adv-x="952" d="M51 0l279 1425h366q168 0 259.5 -76.5t91.5 -230.5q0 -115 -32 -208t-93.5 -160.5t-150.5 -104.5t-202 -37h-307l-119 -608h-92zM279 694h294q174 0 276.5 109t102.5 297q0 117 -65.5 179t-200.5 62h-283z" />
<glyph unicode="&#x421;" horiz-adv-x="935" d="M88 301q0 39 7 87t14 85l88 449q18 94 46.5 187t79 165t130 117t202.5 45q166 0 256 -80t105 -207q-23 -8 -45.5 -15.5t-46.5 -13.5q-4 98 -75 163t-194 65q-104 0 -169.5 -41t-106.5 -106.5t-62.5 -145.5t-35.5 -160l-78 -406q-10 -47 -15.5 -97t-5.5 -85 q0 -47 13.5 -90t43 -75.5t77.5 -53t118 -20.5q123 0 208 62.5t132 180.5q23 -8 43.5 -15t42.5 -13q-53 -150 -163.5 -222.5t-264.5 -72.5q-172 0 -258 88t-86 225z" />
<glyph unicode="&#x422;" horiz-adv-x="806" d="M190 1341l17 84h782l-18 -84h-342l-262 -1341h-91l263 1341h-349z" />
<glyph unicode="&#x423;" horiz-adv-x="905" d="M59 -14l15 73h47q57 0 118.5 47.5t114.5 151.5l43 82q-41 272 -82 541.5t-82 541.5h93l71 -489q4 -23 13.5 -91.5t20.5 -145t19.5 -144.5t12.5 -90q2 0 3 1t3 1q51 98 102.5 198.5t104.5 198.5l287 563h98l-598 -1140q-78 -152 -160 -225.5t-180 -73.5h-64z" />
<glyph unicode="&#x424;" horiz-adv-x="1222" d="M127 522q2 88 11 180.5t36 182.5q27 94 74 176t115.5 144.5t164 100t217.5 42.5l17 77h90l-16 -77q106 -4 180 -40t119 -95.5t64.5 -136.5t19.5 -163q0 -88 -11.5 -174t-36.5 -172q-29 -96 -75.5 -178t-117.5 -141.5t-165 -94t-215 -34.5l-23 -119h-90l23 119 q-33 -2 -59.5 5t-49.5 13q-76 20 -128 57t-83.5 87.5t-46 112t-14.5 128.5zM215 526q0 -141 70.5 -229t236.5 -98l207 1065q-137 -4 -234.5 -66.5t-160 -164t-91 -232.5t-28.5 -275zM614 199q143 4 242.5 64.5t159 157.5t86 222t26.5 258q0 164 -71.5 261.5t-235.5 101.5z " />
<glyph unicode="&#x425;" horiz-adv-x="858" d="M-61 0l501 731l-204 692h92l174 -606l409 606h105l-481 -694l223 -729h-94l-189 641l-434 -641h-102z" />
<glyph unicode="&#x426;" horiz-adv-x="1048" d="M51 0l275 1425h88l-256 -1339h598l258 1339h92l-260 -1341h90l-72 -377h-90l57 293h-780z" />
<glyph unicode="&#x427;" horiz-adv-x="935" d="M170 979l84 446h90l-82 -421q-16 -80 -15 -142.5t25.5 -106.5t75.5 -67.5t137 -23.5q72 0 156 18t156 57l133 688h92l-277 -1427h-92q4 16 13.5 66.5t22.5 117t28.5 142t28 142.5t21.5 117t13 66q-76 -39 -164 -54t-149 -15q-184 0 -261 96t-36 301z" />
<glyph unicode="&#x428;" horiz-adv-x="1552" d="M45 0l279 1425h90l-262 -1339h507l261 1339h94l-262 -1339h516l262 1339h92l-279 -1425h-1298z" />
<glyph unicode="&#x429;" horiz-adv-x="1566" d="M45 0l274 1425h91l-258 -1339h507l259 1339h92l-258 -1339h514l260 1339h92l-260 -1341h92l-74 -377h-86l58 293h-1303z" />
<glyph unicode="&#x42a;" horiz-adv-x="1226" d="M186 1337l17 86h465l-123 -639h286q88 0 153 -24.5t107 -66.5t62.5 -99t20.5 -123q0 -104 -33 -191t-94.5 -149.5t-149.5 -96.5t-199 -34h-399l260 1337h-373zM408 86h294q88 0 158 28.5t118 78t73.5 117t25.5 147.5q0 106 -62.5 173.5t-191.5 67.5h-297z" />
<glyph unicode="&#x42b;" horiz-adv-x="1224" d="M25 0q16 84 38.5 198.5t47 242.5t51 264.5t51.5 266.5t47.5 245.5t40.5 205.5h92q-33 -162 -63.5 -320.5t-61.5 -320.5h287q88 0 152.5 -24.5t106.5 -66.5t62.5 -99t20.5 -123q0 -113 -35 -200t-100.5 -147.5t-157.5 -91t-205 -30.5h-374zM133 86h293q174 0 274.5 99.5 t100.5 260.5q0 109 -60.5 180.5t-193.5 71.5h-295zM932 0l276 1425h95l-279 -1425h-92z" />
<glyph unicode="&#x42c;" horiz-adv-x="935" d="M2 0q16 84 38.5 198.5t47.5 242.5t51.5 264.5t51 266.5t47 245.5t41.5 205.5h92l-123 -641h284q88 0 153 -24.5t108 -66.5t63.5 -99t20.5 -123q0 -113 -35 -200t-98.5 -147.5t-152.5 -91t-200 -30.5h-389zM111 86h292q86 0 156 25.5t119 73.5t75.5 115t26.5 146 q0 111 -60.5 181.5t-195.5 70.5h-295z" />
<glyph unicode="&#x42d;" horiz-adv-x="915" d="M37 258l90 33q8 -92 78.5 -152.5t189.5 -60.5q104 0 170 41t107 106.5t61.5 145.5t36.5 159l29 152h-453l19 86h450l33 168q10 47 15 97t5 85q0 45 -13 89t-43 77t-78 53.5t-118 20.5q-115 0 -197.5 -56.5t-129.5 -160.5l-84 37q57 131 163.5 195.5t249.5 64.5 q172 0 258.5 -88t86.5 -226q0 -39 -7.5 -87t-13.5 -85l-88 -448q-18 -96 -47 -188.5t-79 -164t-130 -116.5t-203 -45q-160 0 -250 74.5t-108 193.5z" />
<glyph unicode="&#x42e;" horiz-adv-x="1269" d="M35 0l276 1425h90q-31 -166 -62.5 -330.5t-64.5 -330.5h191l55 260q18 82 48 156.5t79 131t124 90.5t181 34q166 0 254 -89.5t88 -234.5q0 -49 -10 -112.5t-20 -122.5q-8 -43 -18.5 -99.5t-21 -115t-20.5 -116t-18 -100.5q-18 -90 -47 -173t-80 -146.5t-129 -101 t-197 -37.5q-109 0 -180.5 35.5t-110.5 95t-48 138.5t7 163l48 264h-189l-135 -684h-90zM483.5 301q1.5 -65 27.5 -117.5t81 -84t147 -31.5q88 0 149.5 31.5t101.5 82.5t63.5 115.5t36.5 130.5q29 147 55 296.5t51 293.5q10 63 3 123.5t-35.5 107.5t-82 75t-135.5 28 q-92 0 -152.5 -34t-99.5 -89t-60.5 -124t-35.5 -136l-102 -535q-14 -68 -12.5 -133z" />
<glyph unicode="&#x42f;" horiz-adv-x="1026" d="M-16 0l180 446q39 94 89 163t136 100q-86 33 -125 102.5t-39 163.5q0 104 33 188t94.5 142.5t146.5 89t189 30.5h397l-274 -1425h-90l129 670h-291q-43 0 -84 -9.5t-79 -35t-72.5 -71.5t-65.5 -118l-178 -436h-96zM317 981q0 -119 71 -174t192 -55h286l115 591h-295 q-80 0 -147.5 -23.5t-116.5 -69.5t-77 -113.5t-28 -155.5z" />
<glyph unicode="&#x430;" horiz-adv-x="876" d="M82 268q0 59 8 128t23 141q20 109 53 197.5t82 153t116.5 99.5t157.5 35q86 0 150.5 -40t89.5 -110l2 2l24 134h86l-196 -1008h-86l31 143h-5q-53 -72 -122.5 -113.5t-171.5 -41.5q-66 0 -112 21.5t-74.5 60.5t-42 89t-13.5 109zM172 279q0 -43 9 -82t30.5 -67t56.5 -44 t86 -16q57 0 104.5 22.5t83.5 59t61.5 83t41.5 93.5q29 90 46.5 181t27.5 175q8 51 -2 97t-35 80t-64 54.5t-88 20.5q-80 0 -135 -34t-91 -89t-58.5 -125t-36.5 -141q-16 -72 -26.5 -141.5t-10.5 -126.5z" />
<glyph unicode="&#x431;" horiz-adv-x="856" d="M66 283q0 47 6 106.5t16 130.5q14 86 25.5 145.5t20.5 103.5t15.5 74.5t12.5 57.5q39 168 89 273.5t126 169t185.5 92t266.5 41.5l5 -76q-129 -8 -219.5 -27.5t-154 -65.5t-108.5 -124t-82 -201q-25 -80 -49 -184q2 0 3 -1t3 -1q31 51 68 86t77 54t79.5 27.5t74.5 8.5 q74 0 126.5 -24.5t84 -64.5t47 -91.5t15.5 -106.5q0 -59 -8.5 -122.5t-20.5 -129.5q-20 -102 -52 -184t-80 -140.5t-117.5 -90t-164.5 -31.5q-78 0 -133 21.5t-90 60.5t-51 93t-16 120zM154 283q0 -47 10 -87t34.5 -70t65.5 -46.5t103 -16.5q117 0 192 76q35 37 65.5 108.5 t53.5 164.5q14 61 23.5 124.5t11.5 129.5q0 47 -10.5 89t-34 72.5t-63.5 49t-101 18.5q-63 0 -114.5 -24.5t-92.5 -69.5q-59 -66 -85 -149t-38 -169q-8 -49 -13 -99t-7 -101z" />
<glyph unicode="&#x432;" horiz-adv-x="854" d="M57 240q0 68 15 127l67 315q14 66 41 127t73 108.5t112.5 76t160.5 28.5q76 0 128.5 -19.5t85 -51t47 -71.5t14.5 -79q0 -33 -10.5 -69t-32 -67.5t-52 -57t-73.5 -40.5q78 -25 109.5 -80t31.5 -120q0 -82 -29.5 -152t-85 -121t-133 -79.5t-172.5 -28.5q-141 0 -219 65.5 t-78 188.5zM143 258q0 -80 48 -135t163 -55q80 0 141.5 24.5t104.5 64.5t64.5 93t21.5 108q0 78 -49 123t-154 45h-116l16 78h94q104 0 166 52.5t64 131.5q0 61 -44.5 107.5t-146.5 46.5q-66 0 -115 -21.5t-84.5 -56.5t-57 -80t-30.5 -90l-75 -356q-4 -23 -7.5 -42.5 t-3.5 -37.5z" />
<glyph unicode="&#x433;" horiz-adv-x="778" d="M37 209q0 74 23.5 129t68.5 97t110.5 72t149.5 54q154 45 224.5 94.5t70.5 135.5q0 76 -53 111.5t-146 35.5q-78 0 -153.5 -32t-116.5 -93l-68 45q53 80 142.5 122t199.5 42q59 0 111.5 -12.5t90.5 -39t60.5 -67.5t22.5 -98q0 -66 -24.5 -115t-69.5 -86t-108.5 -64.5 t-141.5 -52.5q-66 -20 -122 -39.5t-96 -48t-62.5 -70.5t-22.5 -106q0 -86 60.5 -121.5t158.5 -35.5q68 0 144.5 32.5t130.5 96.5l63 -45q-118 -166 -360 -166q-125 0 -206 56t-81 169z" />
<glyph unicode="&#x434;" horiz-adv-x="868" d="M61 315q0 47 5.5 94.5t15.5 90.5q23 104 50.5 182t66.5 133q47 68 120.5 112t172.5 44q80 0 153.5 -43t102.5 -131q8 0 15 36.5t11 80.5t6 82t2 42q0 66 -10 127.5t-40 107.5t-81 73.5t-133 27.5q-37 0 -83 -6t-99 -20l-14 73q59 16 108 22.5t96 6.5q98 0 163 -32 t102.5 -85t53 -125.5t15.5 -154.5q0 -94 -17.5 -242.5t-64.5 -349.5q-27 -109 -62.5 -197t-86.5 -149.5t-120 -95t-157 -33.5q-90 0 -147.5 28.5t-89 74.5t-43 105.5t-11.5 120.5zM145 303q0 -27 3.5 -52.5t11.5 -47.5q14 -57 61 -98.5t141 -41.5q72 0 126.5 35t91.5 90 q25 33 47 85.5t40.5 112.5t30 120.5t11.5 109.5v41t-2 39q-8 86 -61.5 140.5t-151.5 56.5q-51 0 -97.5 -17.5t-85.5 -54.5q-39 -39 -69.5 -98t-52 -129t-33 -145.5t-11.5 -145.5z" />
<glyph unicode="&#x435;" horiz-adv-x="831" d="M70 279q0 72 9 154.5t29.5 165.5t55.5 159t85 135t118.5 94t156.5 35q147 0 219 -67.5t72 -166.5q0 -164 -118.5 -257t-374.5 -93q-25 0 -69 2t-85 6q-6 -37 -10 -74.5t-4 -68.5q0 -106 46 -170.5t158 -64.5q72 0 143.5 34.5t112.5 94.5l66 -39q-53 -78 -136 -124 t-194 -46q-84 0 -138 26.5t-86 68.5t-44 94t-12 102zM182 526q37 -4 84 -7t76 -3q104 0 178 19.5t120 54.5t67.5 82t21.5 102q0 76 -55.5 122t-155.5 46q-70 0 -125 -30.5t-96 -86t-69.5 -131.5t-45.5 -168z" />
<glyph unicode="&#x436;" horiz-adv-x="1603" d="M-18 125l63 43q25 -55 69 -81t97 -26q80 0 133 38t88 94q20 37 42 97t39 132t27.5 146.5t10.5 140.5q0 100 -43 165.5t-148 65.5q-119 0 -198 -102l-56 49q102 133 271 133q68 0 117 -23.5t80.5 -63.5t46 -92.5t14.5 -109.5q0 -47 -6 -113.5t-21 -132.5h6 q76 131 136.5 261.5t126.5 259.5h67l-145 -768q2 0 3 -1t3 -1q45 98 88 183t88 177q45 88 87 166t91 135t109.5 90t142.5 33q88 0 150.5 -36t87.5 -105l-66 -39q-20 49 -67.5 75.5t-100.5 26.5q-59 0 -120.5 -39t-113 -120t-84 -209t-32.5 -306q0 -45 9 -81.5t31.5 -64.5 t59.5 -43.5t90 -15.5q63 0 119 34t94 89l58 -43q-47 -72 -117 -113.5t-170 -41.5q-76 0 -126 23.5t-79.5 61.5t-42 87t-12.5 102q0 25 1 47.5t4 48t8 57t12 74.5h-7q-63 -123 -121.5 -244.5t-117.5 -244.5h-80l141 743h-4q-35 -72 -65.5 -133t-61.5 -119.5t-63.5 -119 t-73.5 -129.5q-27 -55 -56.5 -101.5t-69.5 -81t-92 -54t-126 -19.5q-86 0 -144.5 35.5t-80.5 103.5z" />
<glyph unicode="&#x437;" horiz-adv-x="757" d="M-6 160l72 37q23 -61 75 -96t131 -35q117 0 197 69.5t80 206.5q0 72 -49 106.5t-115 34.5h-102q4 8 9 38t7 38h102q39 0 79 13.5t71 41t50.5 69.5t19.5 99q0 76 -59.5 113t-139.5 37q-76 0 -137.5 -32t-98.5 -93q-8 4 -33.5 20.5t-31.5 20.5q49 86 133 126t182 40 q127 0 201 -55.5t74 -159.5q0 -29 -7.5 -69t-27 -80t-55.5 -76t-91 -54q57 -18 83 -67.5t26 -104.5q0 -90 -27.5 -157.5t-77 -112.5t-117 -67.5t-147.5 -22.5q-102 0 -171.5 43t-104.5 129z" />
<glyph unicode="&#x438;" horiz-adv-x="890" d="M86 178.5q-8 57.5 4 122.5l135 707h88l-131 -691q-10 -49 -7 -94t23.5 -78.5t60.5 -53t106 -19.5q57 0 108 22.5t92 61.5t69 90t40 108l125 654h88l-197 -1008h-88l31 143h-6q-59 -84 -139 -119.5t-156 -35.5q-74 0 -125 24.5t-82 66.5t-39 99.5z" />
<glyph unicode="&#x439;" horiz-adv-x="890" d="M86 178.5q-8 57.5 4 122.5l135 707h88l-131 -691q-10 -49 -7 -94t23.5 -78.5t60.5 -53t106 -19.5q57 0 108 22.5t92 61.5t69 90t40 108l125 654h88l-197 -1008h-88l31 143h-6q-59 -84 -139 -119.5t-156 -35.5q-74 0 -125 24.5t-82 66.5t-39 99.5zM358 1401h76 q-4 -63 39 -109.5t109 -46.5t124 44t80 112h80q-12 -41 -35.5 -83t-59.5 -75t-84 -53.5t-109 -20.5t-105.5 20.5t-71 53.5t-37 74t-6.5 84z" />
<glyph unicode="&#x43a;" horiz-adv-x="817" d="M29 0l194 1008h88l-90 -457h187q27 0 56.5 6t59 22.5t57 46t50.5 76.5l147 306h86l-137 -291q-35 -74 -77 -124t-103 -67q68 -18 88 -70.5t27 -127.5l28 -328h-84l-24 315q-8 100 -52.5 131t-115.5 31h-207l-90 -477h-88z" />
<glyph unicode="&#x43b;" horiz-adv-x="868" d="M-68 39q59 33 101.5 69.5t73 95t57 148.5t55.5 230l84 426h561q-47 -256 -96 -506t-98 -502h-88q47 233 91 463.5t89 466.5h-391q-43 -225 -77 -388t-77 -276.5t-102.5 -184.5t-155.5 -112q-6 18 -13 34.5t-14 35.5z" />
<glyph unicode="&#x43c;" horiz-adv-x="1067" d="M23 0q47 252 96 502t98 504h84l209 -703q123 176 243.5 351t241.5 352h90l-196 -1006h-88q39 205 78 405.5t79 405.5l-434 -618h-65q-43 141 -74 238t-51.5 166t-35.5 118t-28 94h-2q-41 -205 -79.5 -405.5t-77.5 -403.5h-88z" />
<glyph unicode="&#x43d;" horiz-adv-x="864" d="M23 0l196 1008h88l-88 -457h477l88 457h90l-194 -1008h-90l92 477h-477l-92 -477h-90z" />
<glyph unicode="&#x43e;" horiz-adv-x="851" d="M66 276q0 59 5 121t15 117q20 117 56 211t85 158q53 68 123 103.5t168 35.5q80 0 136.5 -26.5t91 -71.5t50 -101.5t15.5 -117.5q-2 -63 -12.5 -134t-24.5 -137q-23 -109 -55.5 -192.5t-80.5 -140t-116.5 -85t-163.5 -28.5q-88 0 -145 25.5t-90 66.5t-45 92t-12 104z M154 307q0 -47 7 -90t29.5 -77t64.5 -54t110 -20q94 0 160.5 47t101.5 133q20 45 37.5 103.5t31 120.5t20.5 124.5t7 118.5q0 111 -57.5 170t-157.5 59q-70 0 -127 -30.5t-96 -88.5q-25 -37 -48.5 -98t-42 -133t-29.5 -146.5t-11 -138.5z" />
<glyph unicode="&#x43f;" horiz-adv-x="884" d="M33 0l196 1008h86q-8 -37 -15 -74t-13 -74h4q59 84 141 121t160 37q76 0 127 -25.5t79.5 -68.5t36 -100.5t-5.5 -118.5l-137 -705h-88l133 680q8 47 8 92t-18 80t-57 56.5t-109 21.5q-78 0 -134 -31t-96 -81t-64.5 -115.5t-37.5 -133.5l-110 -569h-86z" />
<glyph unicode="&#x440;" horiz-adv-x="856" d="M-66 -408q68 356 137.5 708.5t139.5 709.5h86l-25 -133h4q53 68 121 107.5t164 39.5q129 0 188.5 -69.5t59.5 -198.5q-2 -63 -10 -139t-23 -138q-23 -104 -53.5 -194t-78.5 -154.5t-115.5 -101.5t-166.5 -37q-96 0 -150 43t-81 106h-4l-107 -549h-86zM172 291 q0 -45 9 -84t32 -68.5t57.5 -47t87.5 -17.5q84 0 140.5 36.5t93.5 96t60.5 137.5t39.5 158q12 57 18.5 113.5t6.5 109.5q0 45 -8.5 84t-30 67.5t-58.5 46t-94 17.5q-98 0 -167.5 -61.5t-100.5 -151.5q-33 -92 -53.5 -191.5t-30.5 -191.5q-2 -12 -2 -25.5v-27.5z" />
<glyph unicode="&#x441;" horiz-adv-x="753" d="M57 289q0 76 9.5 159.5t31 164.5t56 155t87 130t124 89t163.5 33q104 0 176 -47t89 -139l-82 -39q-10 66 -60.5 104.5t-126.5 38.5q-113 0 -185.5 -67.5t-114.5 -166t-58 -210t-16 -197.5q0 -45 9 -86t33.5 -73t65.5 -50t102 -18q76 0 140.5 36.5t95.5 102.5l78 -41 q-47 -86 -129 -133t-193 -47q-86 0 -143 24.5t-91 66.5t-47.5 96t-13.5 114z" />
<glyph unicode="&#x442;" horiz-adv-x="1456" d="M41 0q47 252 97 503t98 503h86l-27 -144h4q59 80 135 118t154 38q98 0 161.5 -47t73.5 -127q68 90 149 132t171 42q84 0 137 -28.5t79.5 -76t31 -105.5t-8.5 -120l-135 -688h-88l133 686q8 45 5 88t-22.5 78t-56 56.5t-98.5 21.5q-68 0 -121 -28t-93 -73t-64.5 -102 t-36.5 -117l-119 -610h-88l135 686q8 45 5 89t-23.5 80t-58.5 57.5t-99 21.5q-74 0 -128 -30t-92 -79t-61.5 -112.5t-35.5 -130.5l-113 -582h-86z" />
<glyph unicode="&#x443;" horiz-adv-x="737" d="M-113 -322q72 6 136.5 34t119.5 106q25 33 42.5 61.5t39.5 75.5l-131 1051h88q10 -106 22.5 -212t24.5 -212q8 -66 15.5 -135.5t13.5 -139.5q6 -59 15.5 -137t9.5 -131h4q55 94 112.5 213t112.5 247t107.5 258t95.5 249h88q-135 -360 -263 -637t-259 -492 q-33 -55 -73 -105.5t-88 -87t-106.5 -59t-126.5 -22.5v75z" />
<glyph unicode="&#x444;" horiz-adv-x="1028" d="M70 301q2 86 15 171t34.5 162t51.5 139.5t67 103.5q61 68 141 110.5t207 36.5l82 424h88l-84 -424q129 -6 201.5 -60.5t97.5 -138.5q14 -51 15 -108.5t-5 -114.5t-18.5 -113.5t-26.5 -107.5q-23 -84 -58.5 -155.5t-91 -124t-133.5 -83t-184 -32.5l-76 -392h-86 q18 98 36.5 195.5t39.5 196.5q-84 6 -143.5 31.5t-97.5 66.5t-55 96.5t-17 120.5zM155 331q-3 -83 21 -141q43 -113 219 -127q45 219 88 438.5t86 438.5q-104 2 -178 -41t-121 -121q-25 -43 -52.5 -118.5t-43.5 -160.5t-19 -168zM483 63q84 0 146.5 28t106.5 76t74 113.5 t48 141.5q12 45 22.5 98t15.5 106.5t2 100.5t-17 82q-23 55 -74 91t-150 40z" />
<glyph unicode="&#x445;" horiz-adv-x="749" d="M-18 0l387 518q-4 6 -17.5 43t-32 89t-39 112.5t-39 113t-32.5 89t-16 43.5h100l137 -422l305 422h109l-373 -492q2 -6 17.5 -45t36 -94t43 -118.5t43 -119t34.5 -94.5t19 -45h-101l-153 444q-4 -6 -28 -38.5t-58.5 -81t-73.5 -102.5t-74 -102t-59.5 -82t-28.5 -38h-106z " />
<glyph unicode="&#x446;" horiz-adv-x="903" d="M84 188.5q-6 59.5 6 124.5l135 695h90l-133 -676q-10 -51 -7 -98.5t23.5 -83t60.5 -57t103 -21.5t116.5 27.5t94.5 71.5t68 101.5t39 118.5l119 617h88l-154 -775q-4 -25 -6 -54t3 -57t19.5 -50.5t43.5 -36.5l-74 -289h-78l64 250q-41 29 -54.5 72t-11.5 79h-2 q-57 -82 -143 -120.5t-164 -38.5q-80 0 -132.5 26.5t-80 70.5t-33.5 103.5z" />
<glyph unicode="&#x447;" horiz-adv-x="790" d="M100 700l60 308h86l-60 -301q-23 -106 23.5 -167t179.5 -61q53 0 121 18.5t125 49.5l90 461h90l-197 -1008h-88l88 461q-59 -31 -129.5 -46.5t-119.5 -15.5q-154 0 -226.5 74t-42.5 227z" />
<glyph unicode="&#x448;" horiz-adv-x="1413" d="M67.5 197.5q-4.5 58.5 8.5 119.5l135 689h88l-133 -687q-8 -45 -5 -88t22.5 -77.5t56 -56t98.5 -21.5q68 0 121 27.5t93 72.5t64.5 102.5t36.5 116.5l119 611h88l-135 -687q-10 -45 -6 -89t24.5 -79.5t58.5 -57t99 -21.5q74 0 128 29.5t92 78.5t61.5 112.5t36.5 131.5 l112 582h86q-47 -252 -97 -503t-97 -503h-86l26 143h-4q-59 -80 -135 -117.5t-154 -37.5q-98 0 -161.5 47t-73.5 127q-68 -90 -149 -132t-171 -42q-84 0 -137 28.5t-79.5 75.5t-31 105.5z" />
<glyph unicode="&#x449;" horiz-adv-x="1452" d="M82 196.5q-4 59.5 8 120.5l135 689h88l-133 -687q-8 -45 -5 -88t21.5 -77.5t56.5 -56t99 -21.5q66 0 119 26.5t93 70.5t65.5 102.5t38.5 119.5l118 611h88q-41 -209 -74.5 -373t-60.5 -314q-8 -47 -5 -91t22.5 -78.5t58.5 -56t100 -21.5t113.5 25.5t92.5 69.5t68 101.5 t40 120.5l119 617h88l-142 -727q-4 -31 -11 -66t-5 -68.5t15.5 -62.5t47.5 -47l-73 -287h-76l65 250q-41 27 -56 70t-11 79h-2q-31 -43 -68 -72.5t-78 -48t-82.5 -26.5t-78.5 -8q-98 0 -163 42t-73 128q-68 -92 -146.5 -133t-168.5 -41q-84 0 -136.5 28.5t-80 74.5 t-31.5 105.5z" />
<glyph unicode="&#x44a;" horiz-adv-x="989" d="M70 930l14 78h381q-8 -37 -19.5 -94.5t-23.5 -118t-23.5 -117.5t-19.5 -94h266q84 0 138.5 -23.5t86 -60.5t44 -81t12.5 -83q0 -78 -30 -142.5t-82 -110.5t-124 -71.5t-155 -25.5q-80 0 -141.5 24.5t-99.5 71.5t-51.5 112.5t3.5 149.5l114 586h-290zM326 223.5 q8 -47.5 33.5 -82.5t70 -55t105.5 -20q74 0 129 21.5t94 57t58.5 83.5t19.5 102q0 76 -53.5 125t-159.5 49h-258l-37 -180q-10 -53 -2 -100.5z" />
<glyph unicode="&#x44b;" horiz-adv-x="1095" d="M74 256q0 37 10 88l131 664h88l-86 -426h266q84 0 138.5 -23.5t85 -60.5t43 -81t12.5 -83q0 -78 -28.5 -141.5t-81 -109.5t-124 -71.5t-157.5 -25.5q-137 0 -217 70.5t-80 199.5zM160 264q0 -86 54 -142t159 -56q72 0 128 21.5t94 57t58.5 82.5t20.5 101q0 78 -53.5 127 t-161.5 49h-256l-37 -180q-6 -31 -6 -60zM813 0q47 252 97.5 502t97.5 506h90l-197 -1008h-88z" />
<glyph unicode="&#x44c;" horiz-adv-x="829" d="M85 194.5q-13 65.5 3 149.5l131 664h90l-86 -424h266q84 0 138.5 -23.5t85 -60.5t43 -81t12.5 -83q0 -78 -28.5 -142.5t-81 -110.5t-124 -71.5t-157.5 -25.5q-80 0 -141.5 24.5t-99.5 71.5t-51 112.5zM170 223.5q8 -47.5 33.5 -82.5t70 -55t105.5 -20q74 0 129 21.5 t93 57t58.5 83.5t20.5 102q0 76 -53.5 125t-161.5 49h-256l-37 -180q-10 -53 -2 -100.5z" />
<glyph unicode="&#x44d;" horiz-adv-x="763" d="M16 152l76 41q18 -61 73.5 -94t121.5 -33q90 0 145 33.5t90 86.5q35 49 57.5 126t36.5 163h-370q4 18 7 36.5t7 39.5h371q8 53 11 91t3 73q0 98 -47 159.5t-164 61.5q-66 0 -130 -31t-105 -86l-66 45q53 76 129 115t180 39q78 0 133.5 -23.5t90 -63.5t51 -95.5 t16.5 -118.5q-2 -68 -12 -148t-26.5 -158.5t-41 -148t-55.5 -117.5q-45 -68 -120 -112.5t-191 -44.5q-98 0 -172 40t-99 124z" />
<glyph unicode="&#x44e;" horiz-adv-x="1093" d="M33 0l194 1006h88l-88 -457h140q23 113 55.5 201t79.5 148t113.5 92t156.5 32q78 0 131 -25.5t87 -67.5t49.5 -96.5t15.5 -111.5q0 -72 -10.5 -145.5t-26.5 -147.5q-23 -104 -54.5 -186t-79.5 -137.5t-113.5 -85t-156.5 -29.5q-80 0 -133 22.5t-87 59.5t-48 86t-14 102 q0 55 6 106.5t14 108.5h-139q-25 -119 -47.5 -238.5t-46.5 -236.5h-86zM416 285q0 -39 7 -78t28.5 -71t61.5 -51t105 -19q84 0 138.5 35.5t90.5 93t56.5 129t36.5 145.5q12 61 20.5 124.5t8.5 123.5q0 98 -49.5 161.5t-153.5 63.5q-61 0 -111.5 -22.5t-91.5 -75.5 q-43 -53 -71.5 -146.5t-51.5 -208.5q-25 -127 -24 -204z" />
<glyph unicode="&#x44f;" horiz-adv-x="849" d="M-8 0l108 295q25 66 64 123t108 78q-70 27 -102.5 78t-32.5 120q0 137 90 225.5t250 88.5h373l-193 -1008h-88l90 463h-247q-33 0 -65 -6t-60.5 -23.5t-53 -49.5t-43.5 -81l-110 -303h-88zM223 694q0 -80 58.5 -116.5t152.5 -36.5h240l76 389h-263q-53 0 -101 -13.5 t-84 -43t-57.5 -73.5t-21.5 -106z" />
<glyph unicode="&#x451;" horiz-adv-x="831" d="M70 279q0 72 9 154.5t29.5 165.5t55.5 159t85 135t118.5 94t156.5 35q147 0 219 -67.5t72 -166.5q0 -164 -118.5 -257t-374.5 -93q-25 0 -69 2t-85 6q-6 -37 -10 -74.5t-4 -68.5q0 -106 46 -170.5t158 -64.5q72 0 143.5 34.5t112.5 94.5l66 -39q-53 -78 -136 -124 t-194 -46q-84 0 -138 26.5t-86 68.5t-44 94t-12 102zM182 526q37 -4 84 -7t76 -3q104 0 178 19.5t120 54.5t67.5 82t21.5 102q0 76 -55.5 122t-155.5 46q-70 0 -125 -30.5t-96 -86t-69.5 -131.5t-45.5 -168zM336 1237l18 104h99l-21 -104h-96zM678 1237l20 104h97l-21 -104 h-96z" />
<glyph unicode="&#x452;" horiz-adv-x="878" d="M31 0q59 299 116.5 596t114.5 596h-110l14 74h110q10 53 21.5 108.5t21.5 108.5h87q-10 -53 -20.5 -108.5t-20.5 -108.5h426l-15 -74h-426l-69 -354h4q53 76 131 125t170 49q72 0 120 -22.5t76.5 -63.5t41 -99.5t12.5 -128.5q0 -55 -7.5 -125.5t-20.5 -143.5 t-31.5 -139.5t-43.5 -111.5q-53 -104 -146 -157.5t-261 -57.5l14 74q96 4 162.5 32.5t111.5 78t71 117t42 151.5q14 70 19.5 136t5.5 120q0 137 -43 197.5t-140 60.5q-74 0 -132 -35t-102 -91t-73 -126t-41 -139l-102 -539h-88z" />
<glyph unicode="&#x453;" horiz-adv-x="798" d="M37 209q0 74 23.5 129t68.5 97t110.5 72t149.5 54q154 45 224.5 94.5t70.5 135.5q0 76 -53 111.5t-146 35.5q-78 0 -153.5 -32t-116.5 -93l-68 45q53 80 142.5 122t199.5 42q59 0 111.5 -12.5t90.5 -39t60.5 -67.5t22.5 -98q0 -66 -24.5 -115t-69.5 -86t-108.5 -64.5 t-141.5 -52.5q-66 -20 -122 -39.5t-96 -48t-62.5 -70.5t-22.5 -106q0 -86 60.5 -121.5t158.5 -35.5q68 0 144.5 32.5t130.5 96.5l63 -45q-118 -166 -360 -166q-125 0 -206 56t-81 169zM502 1169l190 312l90 -37l-229 -297z" />
<glyph unicode="&#x454;" horiz-adv-x="763" d="M59 285q0 53 4.5 109.5t14.5 111.5q14 98 47 190t86 164t131 116t186 44q104 0 176 -47t89 -139q-23 -10 -41.5 -19.5t-40.5 -19.5q-10 66 -60.5 104.5t-126.5 38.5q-80 0 -139 -34t-100 -89t-66.5 -124.5t-40.5 -139.5h375l-14 -78h-375q-10 -51 -12 -96t-2 -80 q0 -53 10 -95t34.5 -72t65.5 -46t102 -16q76 0 139.5 37.5t94.5 103.5l78 -41q-47 -86 -129 -133t-193 -47q-86 0 -142 22.5t-90 62.5t-47.5 94t-13.5 118z" />
<glyph unicode="&#x455;" horiz-adv-x="792" d="M20 170l76 41q29 -72 86.5 -107.5t155.5 -35.5q53 0 102 14t86 44t59.5 73t22.5 102q0 45 -16.5 75t-46 50t-69.5 32.5t-85 24.5q-119 33 -185.5 84t-66.5 148q0 141 98.5 224t256.5 83q111 0 181 -43t103 -123l-82 -41q-47 123 -213 123q-113 0 -181.5 -61.5 t-68.5 -147.5q0 -39 15.5 -64.5t44.5 -45t68.5 -33t91.5 -27.5q55 -14 101 -32.5t79 -47t51 -68.5t18 -98q0 -143 -93 -235t-281 -92q-121 0 -200 47t-108 137z" />
<glyph unicode="&#x456;" horiz-adv-x="358" d="M53 0l195 1010h88l-195 -1010h-88zM299 1286l18 98h95l-19 -98h-94z" />
<glyph unicode="&#x457;" horiz-adv-x="358" d="M53 0l195 1010h88l-195 -1010h-88zM94 1223l19 104h98l-21 -104h-96zM436 1223l21 104h96l-21 -104h-96z" />
<glyph unicode="&#x458;" horiz-adv-x="372" d="M-180 -412l14 82h37q78 0 112 47t50 133q55 289 112.5 577t112.5 581h90q-57 -299 -114.5 -592t-114.5 -588q-23 -109 -81 -175.5t-171 -66.5h-23.5t-23.5 2zM311 1286l19 96h96l-18 -96h-97z" />
<glyph unicode="&#x459;" horiz-adv-x="1316" d="M-63 41q68 33 114.5 84t79.5 117.5t54.5 149.5t39.5 179l84 437h494q-23 -109 -43.5 -214.5t-42.5 -211.5h250q72 0 127 -20.5t92 -54.5t56.5 -79t19.5 -94q0 -78 -30 -141.5t-82 -109.5t-124 -71.5t-156 -25.5q-139 0 -218 71.5t-79 200.5q0 45 9 86l114 584h-319 l-78 -410q-23 -121 -52.5 -210t-69.5 -155.5t-92 -110.5t-122 -71zM659 264q0 -86 53.5 -142t157.5 -56q74 0 130.5 21.5t94.5 57t58.5 82.5t20.5 101q0 78 -53.5 127t-162.5 49h-258l-34 -180q-6 -31 -7 -60z" />
<glyph unicode="&#x45a;" horiz-adv-x="1325" d="M25 0l194 1008h88q-6 -37 -17 -94.5t-22.5 -119t-23 -117.5t-19.5 -93h410l84 424h90l-86 -424h266q84 0 138.5 -23.5t86 -60.5t44 -81t12.5 -83q0 -78 -30 -142.5t-82 -110.5t-123.5 -71.5t-157.5 -25.5q-80 0 -141.5 24.5t-99.5 71.5t-51.5 112.5t3.5 149.5l33 160 h-410q-10 -43 -23.5 -111.5t-27 -141.5t-26.5 -140.5t-21 -110.5h-88zM670 223.5q8 -47.5 33.5 -82.5t70 -55t105.5 -20q74 0 129 21.5t93 57t58.5 83.5t20.5 102q0 76 -53.5 125t-161.5 49h-256l-37 -180q-10 -53 -2 -100.5z" />
<glyph unicode="&#x45b;" horiz-adv-x="884" d="M31 0q57 297 113.5 592t115.5 594h-123l13 71h122l47 232h87q-12 -59 -23.5 -116.5t-22.5 -115.5h416l-12 -71h-418q-16 -82 -31.5 -163t-31.5 -163h4q59 82 141 120t160 38q74 0 125 -25.5t80.5 -69.5t37 -102.5t-5.5 -122.5l-135 -698h-90l133 680q8 45 8 90t-18 80 t-56 57.5t-106 22.5q-78 0 -134 -32t-97 -83t-66.5 -116.5t-38.5 -135.5l-108 -563h-86z" />
<glyph unicode="&#x45c;" horiz-adv-x="817" d="M29 0l194 1008h88l-90 -457h187q27 0 56.5 6t59 22.5t57 46t50.5 76.5l147 306h86l-137 -291q-35 -74 -77 -124t-103 -67q68 -18 88 -70.5t27 -127.5l28 -328h-84l-24 315q-8 100 -52.5 131t-115.5 31h-207l-90 -477h-88zM469 1169l190 312l91 -37l-230 -297z" />
<glyph unicode="&#x45e;" horiz-adv-x="737" d="M-113 -322q72 6 136.5 34t119.5 106q25 33 42.5 61.5t39.5 75.5l-131 1051h88q10 -106 22.5 -212t24.5 -212q8 -66 15.5 -135.5t13.5 -139.5q6 -59 15.5 -137t9.5 -131h4q55 94 112.5 213t112.5 247t107.5 258t95.5 249h88q-135 -360 -263 -637t-259 -492 q-33 -55 -73 -105.5t-88 -87t-106.5 -59t-126.5 -22.5v75zM252 1401h76q-4 -63 39 -109.5t108 -46.5q66 0 124 44t81 112h80q-12 -41 -36 -83t-59.5 -75t-84 -53.5t-109.5 -20.5t-105 20.5t-71 53.5t-37 74t-6 84z" />
<glyph unicode="&#x45f;" horiz-adv-x="886" d="M86 178.5q-8 57.5 4 122.5l135 707h88l-131 -691q-10 -49 -7 -94t23.5 -78.5t60.5 -53t106 -19.5q57 0 108 22.5t92 61.5t69 90t40 108l125 654h88l-197 -1008h-88l31 143h-6q-59 -84 -139 -119.5t-156 -35.5q-74 0 -125 24.5t-82 66.5t-39 99.5zM315 -342l62 276l90 19 q-6 -25 -15.5 -66t-20.5 -84t-20.5 -82.5t-15.5 -62.5h-80z" />
<glyph unicode="&#x490;" horiz-adv-x="864" d="M49 0l275 1423h618l49 244h86l-67 -328h-613l-258 -1339h-90z" />
<glyph unicode="&#x491;" horiz-adv-x="718" d="M27 0l192 1008h504l43 223h84l-62 -303h-495l-178 -928h-88z" />
<glyph unicode="&#x4d9;" horiz-adv-x="831" d="M55 223q0 162 123 256t367 94q25 0 69.5 -3t85.5 -7q16 82 17 150q0 104 -46 166.5t-157 62.5q-72 0 -142.5 -36t-113.5 -95l-65 41q49 82 134 127t193 45q78 0 131.5 -22.5t87 -64.5t49 -99.5t15.5 -124.5q-4 -121 -27.5 -249t-78 -233.5t-141.5 -174t-216 -68.5 q-147 0 -216 64.5t-69 170.5zM145 236q0 -74 50.5 -121t148.5 -47q72 0 128 30.5t99 86t72 131t45 165.5q-37 6 -86 9.5t-78 3.5q-197 0 -288 -73t-91 -185z" />
<glyph unicode="&#x2000;" horiz-adv-x="907" />
<glyph unicode="&#x2001;" horiz-adv-x="1815" />
<glyph unicode="&#x2002;" horiz-adv-x="907" />
<glyph unicode="&#x2003;" horiz-adv-x="1815" />
<glyph unicode="&#x2004;" horiz-adv-x="605" />
<glyph unicode="&#x2005;" horiz-adv-x="453" />
<glyph unicode="&#x2006;" horiz-adv-x="302" />
<glyph unicode="&#x2007;" horiz-adv-x="302" />
<glyph unicode="&#x2008;" horiz-adv-x="226" />
<glyph unicode="&#x2009;" horiz-adv-x="363" />
<glyph unicode="&#x200a;" horiz-adv-x="100" />
<glyph unicode="&#x2010;" horiz-adv-x="708" d="M123 522l18 86h510l-16 -86h-512z" />
<glyph unicode="&#x2011;" horiz-adv-x="708" d="M123 522l18 86h510l-16 -86h-512z" />
<glyph unicode="&#x2012;" horiz-adv-x="708" d="M123 522l18 86h510l-16 -86h-512z" />
<glyph unicode="&#x2013;" horiz-adv-x="1007" d="M55 496l17 88h925l-18 -88h-924z" />
<glyph unicode="&#x2014;" horiz-adv-x="2027" d="M49 496l17 88h1945l-16 -88h-1946z" />
<glyph unicode="&#x2018;" horiz-adv-x="358" d="M254 1133l25 127l114 194h56l-84 -197h30l-24 -124h-117z" />
<glyph unicode="&#x2019;" horiz-adv-x="358" d="M256 1135l84 196h-31l25 125h117l-25 -127l-115 -194h-55z" />
<glyph unicode="&#x201a;" horiz-adv-x="317" d="M-37 -199l84 197h-31l25 123h117l-23 -127l-117 -193h-55z" />
<glyph unicode="&#x201c;" horiz-adv-x="495" d="M217 1133l25 127l114 194h56l-84 -197h30l-26 -124h-115zM412 1133l24 127l115 194h57l-84 -197h29l-25 -124h-116z" />
<glyph unicode="&#x201d;" horiz-adv-x="495" d="M221 1133l86 198h-31l25 125h117l-25 -127l-117 -196h-55zM416 1133l86 198h-31l27 125h114l-24 -127l-115 -196h-57z" />
<glyph unicode="&#x201e;" horiz-adv-x="559" d="M-27 -199l84 197h-30l24 123h117l-23 -127l-116 -193h-56zM186 -199l84 197h-30l24 123h117l-23 -127l-116 -193h-56z" />
<glyph unicode="&#x2020;" horiz-adv-x="790" d="M111 846l16 84h319l97 489h90l-96 -489h321l-16 -84h-322l-239 -1233h-91l240 1233h-319z" />
<glyph unicode="&#x2021;" horiz-adv-x="800" d="M-2 264l16 82h322l98 500h-321l14 84h324l96 489h90l-96 -489h325l-16 -84h-324l-98 -500h324l-15 -82h-325l-127 -651h-90l127 651h-324z" />
<glyph unicode="&#x2022;" horiz-adv-x="727" d="M193 555q0 74 51 126t125 52q37 0 68.5 -14t55 -38t37 -56.5t13.5 -69.5q0 -74 -51.5 -125t-122.5 -51q-37 0 -69 14.5t-56.5 38t-37.5 55t-13 68.5z" />
<glyph unicode="&#x2026;" horiz-adv-x="1144" d="M23 0l22 125h115l-23 -125h-114zM410 0l22 125h115l-23 -125h-114zM801 0l22 125h115l-23 -125h-114z" />
<glyph unicode="&#x202f;" horiz-adv-x="363" />
<glyph unicode="&#x2030;" horiz-adv-x="1728" d="M92 -35l1049 1497h78l-1051 -1497h-76zM135 698q-6 39 2 80l90 455q18 92 70.5 143t157.5 51q47 0 87 -15t66.5 -42t38.5 -65.5t4 -83.5l-12 -66l-76 -395q-16 -84 -71.5 -140.5t-155.5 -56.5q-63 0 -105.5 18.5t-66 48t-29.5 68.5zM211 770q-10 -59 18.5 -99t104.5 -40 q78 0 111.5 40t43.5 95q2 12 9.5 48t16.5 82t19.5 99.5t19.5 99.5t15 81.5t9 48.5q10 55 -21.5 95t-101.5 40q-74 0 -108 -38t-46 -93zM670 129q-6 39 2 80l90 455q18 92 70.5 143t156.5 51q47 0 87 -15.5t66.5 -42t39 -65.5t4.5 -84l-12 -65l-76 -396q-16 -84 -72 -140 t-156 -56q-63 0 -105 18.5t-65.5 48t-29.5 68.5zM745 201q-10 -59 19 -99.5t104 -40.5q78 0 112 40t44 96q2 12 9 48t16.5 82t19.5 99t19.5 99t15.5 82l8 48q10 55 -21.5 95.5t-101.5 40.5q-74 0 -107.5 -38t-45.5 -94zM1182 129q-6 39 2 80l90 455q18 92 70.5 143t156.5 51 q47 0 87 -15.5t66.5 -42t39 -65.5t4.5 -84l-12 -65l-76 -396q-16 -84 -72 -140t-156 -56q-63 0 -105 18.5t-65.5 48t-29.5 68.5zM1257 201q-10 -59 19 -99.5t104 -40.5q78 0 112 40t44 96q2 12 9 48t16.5 82t19.5 99t19.5 99t15.5 82l8 48q10 55 -21.5 95.5t-101.5 40.5 q-74 0 -107.5 -38t-45.5 -94z" />
<glyph unicode="&#x2039;" horiz-adv-x="544" d="M92 461l299 366h92l-299 -366l156 -367h-90z" />
<glyph unicode="&#x203a;" horiz-adv-x="512" d="M37 94l301 369l-156 364h88l160 -366l-301 -367h-92z" />
<glyph unicode="&#x2044;" horiz-adv-x="331" d="M-389 -35l1048 1497h78l-1050 -1497h-76z" />
<glyph unicode="&#x205f;" horiz-adv-x="453" />
<glyph unicode="&#x20ac;" d="M59 584l13 65h75l29 146h-78l13 63h77l13 64q18 94 45.5 187t77 165t128 117t199.5 45q129 0 214 -62.5t102 -181.5l-90 -29q-14 92 -74 141.5t-152 49.5q-100 0 -164.5 -42t-104.5 -108.5t-61.5 -147.5t-35.5 -161l-9 -37h431l-13 -63h-430l-26 -146h430l-13 -65h-430 l-32 -197q-10 -55 -8.5 -112.5t24 -103.5t71 -74.5t128.5 -28.5q205 0 301 200l84 -28q-59 -133 -161 -191.5t-231 -58.5q-100 0 -164.5 32.5t-100.5 88t-43 129t7 155.5l33 189h-74z" />
<glyph unicode="&#x2122;" horiz-adv-x="1445" d="M66 1354v71h491v-71h-209v-715h-74v715h-208zM653 639v784h70l264 -565l260 565h68v-784h-72v606q-59 -121 -116.5 -241.5t-114.5 -243.5h-56q-57 123 -114.5 242.5t-114.5 242.5h-4v-606h-70z" />
<glyph unicode="&#x2202;" horiz-adv-x="870" d="M61 283q0 131 38 241.5t99.5 191.5t137 126t149.5 45q33 0 69 -8.5t73 -29t71.5 -56t65.5 -88.5q31 150 31 270q0 199 -75 305t-210 106q-20 0 -49 -3t-53 -9q4 20 7 39t7 37q35 6 58.5 9t45.5 3q94 0 160 -38t107 -102.5t60 -150.5t19 -184q0 -74 -8 -146.5t-22 -144.5 q-35 -168 -89.5 -301t-124 -225t-149.5 -141t-164 -49q-117 0 -185.5 77.5t-68.5 225.5zM141 303q0 -121 53.5 -182.5t139.5 -61.5q70 0 133 48.5t115.5 125t92.5 173t64 192.5q-53 117 -123 164t-133 47q-80 0 -143.5 -51t-107.5 -128t-67.5 -165t-23.5 -162z" />
<glyph unicode="&#x220f;" horiz-adv-x="1056" d="M16 -180l314 1605h790l-313 -1605h-92l297 1523h-606l-297 -1523h-93z" />
<glyph unicode="&#x2211;" horiz-adv-x="796" d="M-66 -178l17 82l452 719l-172 723l17 79h688l-18 -84h-590l172 -718l-451 -715h608l-14 -86h-709z" />
<glyph unicode="&#x221a;" horiz-adv-x="944" d="M98 727l228 86l96 -848q4 14 33.5 91t74.5 193t100.5 260t114 292.5t113.5 293t100.5 260t75 191.5t33.5 92h82l-709 -1814h-80l-104 889l-147 -56z" />
<glyph unicode="&#x221e;" horiz-adv-x="1349" d="M80 543q0 57 20.5 105t57.5 83t85 55.5t103 20.5q43 0 88 -17.5t88 -48t82 -70.5t70 -83q27 43 65.5 83t84.5 70.5t93.5 48t90.5 17.5q55 0 102 -19.5t82 -54.5t55.5 -83t20.5 -107q0 -61 -20.5 -110.5t-57.5 -85.5t-86 -55.5t-105 -19.5q-94 0 -170.5 62.5t-154.5 157.5 q-41 -49 -79 -89.5t-78 -69t-83 -45t-94 -16.5q-55 0 -102.5 18.5t-82 54.5t-55 86t-20.5 112zM147 543q0 -43 15.5 -80t43 -64.5t63.5 -43t77 -15.5q39 0 78 17.5t76 46t69.5 64.5t59.5 73q-25 33 -57.5 68.5t-69.5 64t-77 47t-79 18.5q-41 0 -77 -15t-62.5 -43t-43 -63.5 t-16.5 -74.5zM719 541q29 -35 61.5 -71t68.5 -64.5t74 -47t76 -18.5q41 0 77 15.5t63.5 43t43 64.5t15.5 80q0 41 -15.5 76.5t-42 62.5t-62 42t-74.5 15t-78 -17t-76 -46t-69.5 -63.5t-61.5 -71.5z" />
<glyph unicode="&#x222b;" horiz-adv-x="591" d="M-147 -309l18 63q37 -6 61 -6q78 0 130.5 64.5t97.5 228.5q2 10 14 66.5t29.5 136.5t36 173t36 176t30 145.5t16.5 80.5q43 203 75.5 346.5t73.5 234.5t99.5 133t152.5 42q14 -2 31.5 -3t33.5 -7l-18 -66q-37 6 -63 6q-78 0 -127.5 -66.5t-89 -200.5t-76.5 -336t-90 -470 q-41 -209 -76 -353.5t-77 -233.5t-97.5 -128t-134.5 -39q-16 0 -41 3.5t-45 9.5z" />
<glyph unicode="&#x2248;" d="M20 391q45 55 102.5 88t119.5 33q51 0 95 -17.5t86 -38t84 -38t85 -17.5q41 0 77 17.5t76 70.5l52 -36q-41 -59 -94.5 -93t-120.5 -34q-47 0 -91.5 17t-87.5 36.5t-87 37t-87 17.5t-80.5 -21.5t-78.5 -62.5zM70 686q45 55 102 88t119 33q51 0 95 -17.5t86 -38t84 -38 t85 -17.5q41 0 77 17.5t77 70.5l51 -36q-41 -59 -94.5 -93t-120.5 -34q-47 0 -91 17t-87 36.5t-87 37t-87 17.5t-81 -21.5t-79 -62.5z" />
<glyph unicode="&#x2260;" d="M-4 121l221 250h-213l14 75h265l225 254h-438l12 74h491l218 246h81l-217 -246h179l-15 -74h-229l-223 -254h403l-14 -75h-457l-219 -250h-84z" />
<glyph unicode="&#x2264;" horiz-adv-x="849" d="M-27 41l15 76h747l-14 -76h-748zM66 547l16 74l813 321l-18 -82l-701 -274l594 -279l-16 -82z" />
<glyph unicode="&#x2265;" horiz-adv-x="849" d="M-18 41l12 76h747l-14 -76h-745zM12 225l15 80l704 279l-596 274l19 84l686 -321l-17 -74z" />
<glyph unicode="&#x25ca;" horiz-adv-x="690" d="M51 578q59 141 120.5 282t123.5 283h80q61 -141 124.5 -282.5t125.5 -282.5q-61 -141 -124 -282.5t-126 -283.5h-80q-61 141 -122.5 282.5t-121.5 283.5zM129 575l205 -471h2l211 471q-53 119 -106.5 237t-106.5 237h-2z" />
<glyph unicode="&#x25fc;" horiz-adv-x="1003" d="M0 0v1004h1004v-1004h-1004z" />
</font>
</defs>
</svg>
